<svg width="288" height="460" viewBox="0 0 288 460" fill="none" xmlns="http://www.w3.org/2000/svg">
<rect x="0.5" y="0.5" width="287" height="459" rx="1.5" fill="white"/>
<rect x="0.5" y="0.5" width="287" height="459" rx="1.5" stroke="#C4CDD5"/>
<path d="M32.3145 48.2793H35.0537V46.6357C39.2109 46.5068 42.0791 44.1865 42.0791 40.2334V40.2119C42.0791 36.2588 39.2539 33.9062 35.0537 33.7881V32.2197H32.3145V33.7881C28.1465 33.917 25.2891 36.248 25.2891 40.2012V40.2227C25.2891 44.1758 28.125 46.5283 32.3145 46.6357V48.2793ZM28.1143 40.2227V40.2012C28.1143 37.709 29.7793 36.1836 32.3467 36.0762V44.3584C29.7578 44.251 28.1143 42.7041 28.1143 40.2227ZM35.0322 36.0762C37.6211 36.1729 39.2539 37.7305 39.2539 40.2119V40.2334C39.2539 42.7256 37.5781 44.2402 35.0322 44.3584V36.0762ZM45.1084 48H47.751L52.6924 40.0938H52.918V48H55.5605V36.2588H52.918L47.9658 44.1221H47.751V36.2588H45.1084V48ZM62.4463 42.9189L62.7793 38.332H66.2061V48H68.8809V36.2588H60.459L60.0508 42.7041C59.9434 44.3906 59.5674 45.7549 58.4932 45.7549C58.1924 45.7549 57.9023 45.7119 57.7842 45.6797V47.9785C57.9561 48.0322 58.3105 48.1074 58.7939 48.1074C61.1787 48.1074 62.2207 46.3027 62.4463 42.9189ZM72.3506 48H77.3457C80.085 48 81.8359 46.4102 81.8359 43.918V43.8965C81.8359 41.4043 80.085 39.8037 77.3457 39.8037H75.0254V36.2588H72.3506V48ZM77.002 41.8662C78.3018 41.8662 79.1396 42.6719 79.1396 43.8857V43.9072C79.1396 45.1104 78.3125 45.9375 77.002 45.9375H75.0254V41.8662H77.002ZM92.5566 36.2588H82.6523V38.332H86.2617V48H88.9365V38.332H92.5566V36.2588ZM95.0918 51.8994H97.7666V46.1309H97.9492C98.5615 47.3984 99.9043 48.1934 101.516 48.1934C104.491 48.1934 106.339 45.8838 106.339 42.1455V42.124C106.339 38.4072 104.459 36.0654 101.516 36.0654C99.8721 36.0654 98.5938 36.8174 97.9492 38.0957H97.7666V36.2588H95.0918V51.8994ZM100.678 45.9375C98.8623 45.9375 97.7344 44.4873 97.7344 42.1348V42.1133C97.7344 39.7607 98.8623 38.3213 100.678 38.3213C102.504 38.3213 103.61 39.7607 103.61 42.124V42.1455C103.61 44.498 102.504 45.9375 100.678 45.9375Z" fill="#161C24"/>
<path d="M34.4922 124.227H36.0859V120.492H34.6641V110.727H32.9141V120.492H27.2422V110.727H25.4922V122H34.4922V124.227ZM41.5 122.164C43.6719 122.164 44.8438 120.914 45.125 119.797L45.1406 119.727L43.5078 119.734L43.4766 119.797C43.2734 120.234 42.625 120.773 41.5391 120.773C40.1406 120.773 39.25 119.828 39.2188 118.203H45.2344V117.609C45.2344 115.062 43.7812 113.352 41.4141 113.352C39.0469 113.352 37.5156 115.125 37.5156 117.773V117.781C37.5156 120.469 39.0156 122.164 41.5 122.164ZM41.4219 114.742C42.5703 114.742 43.4219 115.477 43.5547 116.992H39.2422C39.3906 115.531 40.2656 114.742 41.4219 114.742ZM52.9453 122H54.6328V113.516H52.9453V116.938H49.0938V113.516H47.3984V122H49.0938V118.281H52.9453V122ZM59.5469 122.141C60.6719 122.141 61.5625 121.656 62.0625 120.797H62.1953V122H63.875V116.195C63.875 114.414 62.6719 113.352 60.5391 113.352C58.6094 113.352 57.2734 114.281 57.0703 115.672L57.0625 115.727H58.6953L58.7031 115.695C58.9062 115.094 59.5234 114.75 60.4609 114.75C61.6094 114.75 62.1953 115.266 62.1953 116.195V116.945L59.8984 117.078C57.875 117.203 56.7344 118.086 56.7344 119.602V119.617C56.7344 121.156 57.9297 122.141 59.5469 122.141ZM58.4219 119.547V119.531C58.4219 118.766 58.9531 118.344 60.125 118.273L62.1953 118.141V118.867C62.1953 119.961 61.2656 120.789 60 120.789C59.0859 120.789 58.4219 120.328 58.4219 119.547Z" fill="#161C24"/>
<path d="M249 119L255 113L261 119" stroke="#4295E4" stroke-width="1.5" stroke-linecap="round" stroke-linejoin="round"/>
<rect x="24.5" y="168.5" width="115" height="43" fill="white" stroke="#4295E4"/>
<path d="M51.5107 195H52.8027L57.1914 186.277V185.136H50.6631V186.236H55.9404V186.332L51.5107 195ZM62.1611 184.903C60.1719 184.903 58.709 186.332 58.709 188.301V188.314C58.709 190.208 60.0898 191.616 61.9424 191.616C63.2754 191.616 64.2051 190.898 64.5674 190.092H64.6973C64.6973 190.167 64.6973 190.249 64.6904 190.324C64.6152 192.382 63.8838 194.132 62.0928 194.132C61.0947 194.132 60.4043 193.619 60.1035 192.792L60.0762 192.717H58.8389L58.8594 192.806C59.1943 194.262 60.4248 195.232 62.0791 195.232C64.4717 195.232 65.873 193.264 65.873 189.9V189.887C65.873 186.175 63.9658 184.903 62.1611 184.903ZM62.1543 190.543C60.876 190.543 59.9463 189.6 59.9463 188.287V188.273C59.9463 186.995 60.9375 185.99 62.1748 185.99C63.4258 185.99 64.4033 187.016 64.4033 188.314V188.321C64.4033 189.606 63.4326 190.543 62.1543 190.543ZM75.0879 195.232C77.2686 195.232 78.5811 193.243 78.5811 190.071V190.058C78.5811 186.886 77.2686 184.903 75.0879 184.903C72.9072 184.903 71.6084 186.886 71.6084 190.058V190.071C71.6084 193.243 72.9072 195.232 75.0879 195.232ZM75.0879 194.159C73.6729 194.159 72.8457 192.587 72.8457 190.071V190.058C72.8457 187.542 73.6729 185.983 75.0879 185.983C76.5029 185.983 77.3438 187.542 77.3438 190.058V190.071C77.3438 192.587 76.5029 194.159 75.0879 194.159ZM83.9062 195.232C86.0869 195.232 87.3994 193.243 87.3994 190.071V190.058C87.3994 186.886 86.0869 184.903 83.9062 184.903C81.7256 184.903 80.4268 186.886 80.4268 190.058V190.071C80.4268 193.243 81.7256 195.232 83.9062 195.232ZM83.9062 194.159C82.4912 194.159 81.6641 192.587 81.6641 190.071V190.058C81.6641 187.542 82.4912 185.983 83.9062 185.983C85.3213 185.983 86.1621 187.542 86.1621 190.058V190.071C86.1621 192.587 85.3213 194.159 83.9062 194.159ZM92.7246 195.232C94.9053 195.232 96.2178 193.243 96.2178 190.071V190.058C96.2178 186.886 94.9053 184.903 92.7246 184.903C90.5439 184.903 89.2451 186.886 89.2451 190.058V190.071C89.2451 193.243 90.5439 195.232 92.7246 195.232ZM92.7246 194.159C91.3096 194.159 90.4824 192.587 90.4824 190.071V190.058C90.4824 187.542 91.3096 185.983 92.7246 185.983C94.1396 185.983 94.9805 187.542 94.9805 190.058V190.071C94.9805 192.587 94.1396 194.159 92.7246 194.159ZM102.336 197.461H103.443V185.136H102.336V197.461Z" fill="#161C24"/>
<rect x="148.5" y="168.5" width="115" height="43" fill="white" stroke="#EAEAEA"/>
<path d="M179.101 195H185.485V193.893H180.81V193.783L183.052 191.466C184.836 189.627 185.321 188.807 185.321 187.679V187.665C185.321 186.072 184.002 184.903 182.279 184.903C180.393 184.903 179.039 186.161 179.032 187.911L179.046 187.918L180.222 187.925L180.229 187.911C180.229 186.749 181.015 185.977 182.197 185.977C183.359 185.977 184.063 186.756 184.063 187.795V187.809C184.063 188.67 183.694 189.183 182.437 190.543L179.101 194.152V195ZM191.85 195H193.053V192.956H194.454V191.855H193.053V185.136H191.269C189.888 187.193 188.377 189.6 187.044 191.835V192.956H191.85V195ZM188.302 191.862V191.78C189.375 189.969 190.667 187.932 191.774 186.277H191.856V191.862H188.302ZM203.532 195.232C205.535 195.232 206.964 193.845 206.964 191.855V191.842C206.964 189.935 205.631 188.547 203.778 188.547C202.883 188.547 202.11 188.909 201.673 189.572H201.563L201.898 186.236H206.417V185.136H200.928L200.408 190.803H201.475C201.598 190.57 201.755 190.379 201.926 190.215C202.35 189.812 202.91 189.613 203.566 189.613C204.845 189.613 205.761 190.55 205.761 191.862V191.876C205.761 193.209 204.858 194.146 203.546 194.146C202.391 194.146 201.536 193.394 201.42 192.45L201.413 192.396H200.23L200.237 192.471C200.381 194.05 201.693 195.232 203.532 195.232ZM212.248 195.232C214.429 195.232 215.741 193.243 215.741 190.071V190.058C215.741 186.886 214.429 184.903 212.248 184.903C210.067 184.903 208.769 186.886 208.769 190.058V190.071C208.769 193.243 210.067 195.232 212.248 195.232ZM212.248 194.159C210.833 194.159 210.006 192.587 210.006 190.071V190.058C210.006 187.542 210.833 185.983 212.248 185.983C213.663 185.983 214.504 187.542 214.504 190.058V190.071C214.504 192.587 213.663 194.159 212.248 194.159ZM221.066 195.232C223.247 195.232 224.56 193.243 224.56 190.071V190.058C224.56 186.886 223.247 184.903 221.066 184.903C218.886 184.903 217.587 186.886 217.587 190.058V190.071C217.587 193.243 218.886 195.232 221.066 195.232ZM221.066 194.159C219.651 194.159 218.824 192.587 218.824 190.071V190.058C218.824 187.542 219.651 185.983 221.066 185.983C222.481 185.983 223.322 187.542 223.322 190.058V190.071C223.322 192.587 222.481 194.159 221.066 194.159ZM226.132 193.455H227.499V194.795H228.729V193.455H231.566V192.635H228.729V191.322H230.609C232.462 191.322 233.665 190.085 233.665 188.342V188.328C233.665 186.605 232.476 185.341 230.623 185.341H227.499V190.502H226.132V191.322H227.499V192.635H226.132V193.455ZM228.729 190.229V186.435H230.302C231.717 186.435 232.4 187.159 232.4 188.328V188.342C232.4 189.518 231.71 190.229 230.302 190.229H228.729Z" fill="#161C24"/>
<line x1="24" y1="227.5" x2="264" y2="227.5" stroke="#EDEDED"/>
<path d="M30.2969 263.273C33.5547 263.273 35.5547 260.977 35.5547 257.367V257.352C35.5547 253.734 33.5391 251.453 30.2969 251.453C27.0625 251.453 25.0312 253.727 25.0312 257.352V257.367C25.0312 260.984 27.0156 263.273 30.2969 263.273ZM30.2969 261.727C28.125 261.727 26.8203 260.008 26.8203 257.367V257.352C26.8203 254.688 28.1641 253 30.2969 253C32.4297 253 33.7656 254.688 33.7656 257.352V257.367C33.7656 260.008 32.4375 261.727 30.2969 261.727ZM41.4609 263.164C43.5625 263.164 44.7734 262.031 45.0781 260.383L45.0938 260.312H43.4688L43.4531 260.352C43.1797 261.266 42.5234 261.75 41.4609 261.75C40.0625 261.75 39.1953 260.609 39.1953 258.734V258.719C39.1953 256.891 40.0469 255.766 41.4609 255.766C42.5859 255.766 43.2734 256.391 43.4609 257.227L43.4688 257.25L45.0938 257.242V257.203C44.8594 255.555 43.5859 254.352 41.4531 254.352C38.9766 254.352 37.4688 256.031 37.4688 258.719V258.734C37.4688 261.477 38.9844 263.164 41.4609 263.164ZM50.75 263.164C53.2344 263.164 54.7578 261.5 54.7578 258.766V258.75C54.7578 256.016 53.2266 254.352 50.75 254.352C48.2656 254.352 46.7344 256.023 46.7344 258.75V258.766C46.7344 261.5 48.2578 263.164 50.75 263.164ZM50.75 261.75C49.2891 261.75 48.4688 260.648 48.4688 258.766V258.75C48.4688 256.867 49.2891 255.766 50.75 255.766C52.2031 255.766 53.0312 256.867 53.0312 258.75V258.766C53.0312 260.641 52.2031 261.75 50.75 261.75ZM60.5938 263.164C63.0859 263.164 64.625 261.477 64.625 258.781V258.766C64.625 256.25 63.1562 254.641 60.8906 254.641C59.5859 254.641 58.5859 255.195 58.0234 256.211H57.8906L57.9141 256.047C58.2109 253.844 59.0703 252.953 61.0156 252.875L61.9375 252.836C62.8828 252.797 63.7734 252.609 64.0703 252.383V250.969C63.3672 251.234 62.5391 251.359 61.8516 251.391L60.9141 251.43C57.8438 251.562 56.5312 253.531 56.5312 257.984V258C56.5312 261.367 57.9297 263.164 60.5938 263.164ZM60.5781 261.75C59.1016 261.75 58.2578 260.656 58.2578 258.805V258.789C58.2578 257.031 59.1016 256.023 60.5781 256.023C62.0469 256.023 62.8984 257.031 62.8984 258.789V258.805C62.8984 260.656 62.0469 261.75 60.5781 261.75ZM70.375 263.164C72.5469 263.164 73.7188 261.914 74 260.797L74.0156 260.727L72.3828 260.734L72.3516 260.797C72.1484 261.234 71.5 261.773 70.4141 261.773C69.0156 261.773 68.125 260.828 68.0938 259.203H74.1094V258.609C74.1094 256.062 72.6562 254.352 70.2891 254.352C67.9219 254.352 66.3906 256.125 66.3906 258.773V258.781C66.3906 261.469 67.8906 263.164 70.375 263.164ZM70.2969 255.742C71.4453 255.742 72.2969 256.477 72.4297 257.992H68.1172C68.2656 256.531 69.1406 255.742 70.2969 255.742ZM81.8203 263H83.5078V254.516H81.8203V257.938H77.9688V254.516H76.2734V263H77.9688V259.281H81.8203V263ZM91.6328 263H93.3203V254.516H91.6328V257.938H87.7812V254.516H86.0859V263H87.7812V259.281H91.6328V263ZM99.5 263.164C101.984 263.164 103.508 261.5 103.508 258.766V258.75C103.508 256.016 101.977 254.352 99.5 254.352C97.0156 254.352 95.4844 256.023 95.4844 258.75V258.766C95.4844 261.5 97.0078 263.164 99.5 263.164ZM99.5 261.75C98.0391 261.75 97.2188 260.648 97.2188 258.766V258.75C97.2188 256.867 98.0391 255.766 99.5 255.766C100.953 255.766 101.781 256.867 101.781 258.75V258.766C101.781 260.641 100.953 261.75 99.5 261.75ZM109.258 263.164C111.359 263.164 112.57 262.031 112.875 260.383L112.891 260.312H111.266L111.25 260.352C110.977 261.266 110.32 261.75 109.258 261.75C107.859 261.75 106.992 260.609 106.992 258.734V258.719C106.992 256.891 107.844 255.766 109.258 255.766C110.383 255.766 111.07 256.391 111.258 257.227L111.266 257.25L112.891 257.242V257.203C112.656 255.555 111.383 254.352 109.25 254.352C106.773 254.352 105.266 256.031 105.266 258.719V258.734C105.266 261.477 106.781 263.164 109.258 263.164ZM120.945 254.516H113.906V255.852H116.578V263H118.273V255.852H120.945V254.516ZM122.836 263H124.516L128.352 257.023H128.5V263H130.18V254.516H128.5L124.664 260.469H124.516V254.516H122.836V263Z" fill="#161C24"/>
<path d="M261 254L255 260L249 254" stroke="#938A9F" stroke-width="1.5" stroke-linecap="round" stroke-linejoin="round"/>
<g filter="url(#filter0_ii_1_229)">
<rect width="240" height="50" transform="translate(24 286)" fill="white"/>
<path d="M34.4922 319.227H36.0859V315.492H34.6641V305.727H32.9141V315.492H27.2422V305.727H25.4922V317H34.4922V319.227ZM37.9297 317H41.8047C43.6719 317 44.7891 316.031 44.7891 314.578V314.562C44.7891 313.555 44.0703 312.789 42.9688 312.656V312.523C43.8047 312.367 44.4062 311.578 44.4062 310.711V310.695C44.4062 309.375 43.4297 308.516 41.7656 308.516H37.9297V317ZM39.6094 312.07V309.758H41.4219C42.3203 309.758 42.7344 310.219 42.7344 310.898V310.914C42.7344 311.664 42.2578 312.07 41.2422 312.07H39.6094ZM39.6094 315.75V313.289H41.3672C42.5 313.289 43.0547 313.68 43.0547 314.5V314.516C43.0547 315.297 42.5625 315.75 41.5859 315.75H39.6094ZM50.4844 317.164C52.6562 317.164 53.8281 315.914 54.1094 314.797L54.125 314.727L52.4922 314.734L52.4609 314.797C52.2578 315.234 51.6094 315.773 50.5234 315.773C49.125 315.773 48.2344 314.828 48.2031 313.203H54.2188V312.609C54.2188 310.062 52.7656 308.352 50.3984 308.352C48.0312 308.352 46.5 310.125 46.5 312.773V312.781C46.5 315.469 48 317.164 50.4844 317.164ZM50.4062 309.742C51.5547 309.742 52.4062 310.477 52.5391 311.992H48.2266C48.375 310.531 49.25 309.742 50.4062 309.742ZM62.1953 308.516H55.1562V309.852H57.8281V317H59.5234V309.852H62.1953V308.516Z" fill="#161C24"/>
<path d="M261 308L255 314L249 308" stroke="#938A9F" stroke-width="1.5" stroke-linecap="round" stroke-linejoin="round"/>
</g>
<g filter="url(#filter1_i_1_229)">
<rect width="240" height="50" transform="translate(24 336)" fill="white"/>
<path d="M25.4922 367H27.0859V358.727H27.2109L30.5156 367H31.8125L35.125 358.727H35.2422V367H36.8359V355.727H34.8203L31.2266 364.719H31.1016L27.5078 355.727H25.4922V367ZM41.9531 367.141C43.0781 367.141 43.9688 366.656 44.4688 365.797H44.6016V367H46.2812V361.195C46.2812 359.414 45.0781 358.352 42.9453 358.352C41.0156 358.352 39.6797 359.281 39.4766 360.672L39.4688 360.727H41.1016L41.1094 360.695C41.3125 360.094 41.9297 359.75 42.8672 359.75C44.0156 359.75 44.6016 360.266 44.6016 361.195V361.945L42.3047 362.078C40.2812 362.203 39.1406 363.086 39.1406 364.602V364.617C39.1406 366.156 40.3359 367.141 41.9531 367.141ZM40.8281 364.547V364.531C40.8281 363.766 41.3594 363.344 42.5312 363.273L44.6016 363.141V363.867C44.6016 364.961 43.6719 365.789 42.4062 365.789C41.4922 365.789 40.8281 365.328 40.8281 364.547ZM55.1641 358.516H48.125V359.852H50.7969V367H52.4922V359.852H55.1641V358.516ZM60.3438 367.164C62.5156 367.164 63.6875 365.914 63.9688 364.797L63.9844 364.727L62.3516 364.734L62.3203 364.797C62.1172 365.234 61.4688 365.773 60.3828 365.773C58.9844 365.773 58.0938 364.828 58.0625 363.203H64.0781V362.609C64.0781 360.062 62.625 358.352 60.2578 358.352C57.8906 358.352 56.3594 360.125 56.3594 362.773V362.781C56.3594 365.469 57.8594 367.164 60.3438 367.164ZM60.2656 359.742C61.4141 359.742 62.2656 360.477 62.3984 361.992H58.0859C58.2344 360.531 59.1094 359.742 60.2656 359.742ZM66.25 369.828H67.9453V365.656H68.0703C68.5234 366.57 69.5156 367.141 70.6797 367.141C72.8359 367.141 74.1953 365.453 74.1953 362.766V362.75C74.1953 360.078 72.8203 358.367 70.6797 358.367C69.4922 358.367 68.5625 358.922 68.0703 359.852H67.9453V358.516H66.25V369.828ZM70.2031 365.695C68.7891 365.695 67.9141 364.578 67.9141 362.766V362.75C67.9141 360.938 68.7891 359.82 70.2031 359.82C71.6172 359.82 72.4688 360.922 72.4688 362.75V362.766C72.4688 364.586 71.6172 365.695 70.2031 365.695ZM76.3828 367H78.0625L81.8984 361.023H82.0469V367H83.7266V358.516H82.0469L78.2109 364.469H78.0625V358.516H76.3828V367ZM88.6562 367.141C89.7812 367.141 90.6719 366.656 91.1719 365.797H91.3047V367H92.9844V361.195C92.9844 359.414 91.7812 358.352 89.6484 358.352C87.7188 358.352 86.3828 359.281 86.1797 360.672L86.1719 360.727H87.8047L87.8125 360.695C88.0156 360.094 88.6328 359.75 89.5703 359.75C90.7188 359.75 91.3047 360.266 91.3047 361.195V361.945L89.0078 362.078C86.9844 362.203 85.8438 363.086 85.8438 364.602V364.617C85.8438 366.156 87.0391 367.141 88.6562 367.141ZM87.5312 364.547V364.531C87.5312 363.766 88.0625 363.344 89.2344 363.273L91.3047 363.141V363.867C91.3047 364.961 90.375 365.789 89.1094 365.789C88.1953 365.789 87.5312 365.328 87.5312 364.547ZM97.7891 363.477L98.0625 359.852H100.742V367H102.438V358.516H96.5781L96.25 363.344C96.1719 364.578 95.8828 365.562 95.1016 365.562C94.8906 365.562 94.6797 365.531 94.6016 365.508V366.984C94.7188 367.023 94.9609 367.078 95.2812 367.078C96.8828 367.078 97.6172 365.875 97.7891 363.477Z" fill="#161C24"/>
<path d="M261 358L255 364L249 358" stroke="#938A9F" stroke-width="1.5" stroke-linecap="round" stroke-linejoin="round"/>
</g>
<g filter="url(#filter2_i_1_229)">
<rect width="240" height="50" transform="translate(24 386)" fill="white"/>
<path d="M25.4922 417H27.2422V413.148H29.8828C32.0938 413.148 33.625 411.641 33.625 409.438V409.422C33.625 407.211 32.0938 405.727 29.8828 405.727H25.4922V417ZM29.4453 407.203C30.9609 407.203 31.8438 408.023 31.8438 409.43V409.445C31.8438 410.859 30.9609 411.68 29.4453 411.68H27.2422V407.203H29.4453ZM38.0469 417.141C39.1719 417.141 40.0625 416.656 40.5625 415.797H40.6953V417H42.375V411.195C42.375 409.414 41.1719 408.352 39.0391 408.352C37.1094 408.352 35.7734 409.281 35.5703 410.672L35.5625 410.727H37.1953L37.2031 410.695C37.4062 410.094 38.0234 409.75 38.9609 409.75C40.1094 409.75 40.6953 410.266 40.6953 411.195V411.945L38.3984 412.078C36.375 412.203 35.2344 413.086 35.2344 414.602V414.617C35.2344 416.156 36.4297 417.141 38.0469 417.141ZM36.9219 414.547V414.531C36.9219 413.766 37.4531 413.344 38.625 413.273L40.6953 413.141V413.867C40.6953 414.961 39.7656 415.789 38.5 415.789C37.5859 415.789 36.9219 415.328 36.9219 414.547ZM47.9766 417.164C50.0703 417.164 51.4453 416.078 51.4453 414.508V414.492C51.4453 413.539 50.8672 412.867 49.7109 412.625V412.492C50.5938 412.289 51.1562 411.562 51.1562 410.688V410.672C51.1562 409.266 49.9844 408.344 48.0234 408.344C46.0938 408.344 44.875 409.289 44.6797 410.727L44.6719 410.781H46.2969L46.3047 410.742C46.4297 410.102 47.0781 409.688 47.9844 409.688C49 409.688 49.5078 410.18 49.5078 410.844V410.859C49.5078 411.641 48.9766 412.055 47.9531 412.055H46.6953V413.289H47.9609C49.1406 413.289 49.7734 413.688 49.7734 414.508V414.523C49.7734 415.289 49.1016 415.828 47.9609 415.828C47 415.828 46.3047 415.422 46.1328 414.75L46.1172 414.695H44.4453L44.4531 414.758C44.6328 416.289 46.0938 417.164 47.9766 417.164ZM55.2812 417V411.102H55.4297L57.9062 416.68H59.1406L61.625 411.102H61.7734V417H63.4219V408.516H61.3594L58.6172 414.711H58.4844L55.7578 408.516H53.6328V417H55.2812ZM69.5781 417.164C71.75 417.164 72.9219 415.914 73.2031 414.797L73.2188 414.727L71.5859 414.734L71.5547 414.797C71.3516 415.234 70.7031 415.773 69.6172 415.773C68.2188 415.773 67.3281 414.828 67.2969 413.203H73.3125V412.609C73.3125 410.062 71.8594 408.352 69.4922 408.352C67.125 408.352 65.5938 410.125 65.5938 412.773V412.781C65.5938 415.469 67.0938 417.164 69.5781 417.164ZM69.5 409.742C70.6484 409.742 71.5 410.477 71.6328 411.992H67.3203C67.4688 410.531 68.3438 409.742 69.5 409.742ZM75.4844 419.828H77.1797V415.656H77.3047C77.7578 416.57 78.75 417.141 79.9141 417.141C82.0703 417.141 83.4297 415.453 83.4297 412.766V412.75C83.4297 410.078 82.0547 408.367 79.9141 408.367C78.7266 408.367 77.7969 408.922 77.3047 409.852H77.1797V408.516H75.4844V419.828ZM79.4375 415.695C78.0234 415.695 77.1484 414.578 77.1484 412.766V412.75C77.1484 410.938 78.0234 409.82 79.4375 409.82C80.8516 409.82 81.7031 410.922 81.7031 412.75V412.766C81.7031 414.586 80.8516 415.695 79.4375 415.695ZM85.6172 417H88.9766C90.9453 417 92.2031 415.867 92.2031 414.078V414.062C92.2031 412.281 90.9453 411.148 88.9766 411.148H87.3125V408.516H85.6172V417ZM93.6328 417H95.3281V408.516H93.6328V417ZM88.8359 412.484C89.8516 412.484 90.5 413.109 90.5 414.062V414.078C90.5 415.023 89.8594 415.664 88.8359 415.664H87.3125V412.484H88.8359Z" fill="#161C24"/>
<path d="M261 408L255 414L249 408" stroke="#938A9F" stroke-width="1.5" stroke-linecap="round" stroke-linejoin="round"/>
</g>
<defs>
<filter id="filter0_ii_1_229" x="24" y="286" width="240" height="50" filterUnits="userSpaceOnUse" color-interpolation-filters="sRGB">
<feFlood flood-opacity="0" result="BackgroundImageFix"/>
<feBlend mode="normal" in="SourceGraphic" in2="BackgroundImageFix" result="shape"/>
<feColorMatrix in="SourceAlpha" type="matrix" values="0 0 0 0 0 0 0 0 0 0 0 0 0 0 0 0 0 0 127 0" result="hardAlpha"/>
<feOffset dy="-1"/>
<feComposite in2="hardAlpha" operator="arithmetic" k2="-1" k3="1"/>
<feColorMatrix type="matrix" values="0 0 0 0 0.929412 0 0 0 0 0.929412 0 0 0 0 0.929412 0 0 0 1 0"/>
<feBlend mode="normal" in2="shape" result="effect1_innerShadow_1_229"/>
<feColorMatrix in="SourceAlpha" type="matrix" values="0 0 0 0 0 0 0 0 0 0 0 0 0 0 0 0 0 0 127 0" result="hardAlpha"/>
<feOffset dy="1"/>
<feComposite in2="hardAlpha" operator="arithmetic" k2="-1" k3="1"/>
<feColorMatrix type="matrix" values="0 0 0 0 0.929412 0 0 0 0 0.929412 0 0 0 0 0.929412 0 0 0 1 0"/>
<feBlend mode="normal" in2="effect1_innerShadow_1_229" result="effect2_innerShadow_1_229"/>
</filter>
<filter id="filter1_i_1_229" x="24" y="336" width="240" height="50" filterUnits="userSpaceOnUse" color-interpolation-filters="sRGB">
<feFlood flood-opacity="0" result="BackgroundImageFix"/>
<feBlend mode="normal" in="SourceGraphic" in2="BackgroundImageFix" result="shape"/>
<feColorMatrix in="SourceAlpha" type="matrix" values="0 0 0 0 0 0 0 0 0 0 0 0 0 0 0 0 0 0 127 0" result="hardAlpha"/>
<feOffset dy="-1"/>
<feComposite in2="hardAlpha" operator="arithmetic" k2="-1" k3="1"/>
<feColorMatrix type="matrix" values="0 0 0 0 0.929412 0 0 0 0 0.929412 0 0 0 0 0.929412 0 0 0 1 0"/>
<feBlend mode="normal" in2="shape" result="effect1_innerShadow_1_229"/>
</filter>
<filter id="filter2_i_1_229" x="24" y="386" width="240" height="50" filterUnits="userSpaceOnUse" color-interpolation-filters="sRGB">
<feFlood flood-opacity="0" result="BackgroundImageFix"/>
<feBlend mode="normal" in="SourceGraphic" in2="BackgroundImageFix" result="shape"/>
<feColorMatrix in="SourceAlpha" type="matrix" values="0 0 0 0 0 0 0 0 0 0 0 0 0 0 0 0 0 0 127 0" result="hardAlpha"/>
<feOffset dy="-1"/>
<feComposite in2="hardAlpha" operator="arithmetic" k2="-1" k3="1"/>
<feColorMatrix type="matrix" values="0 0 0 0 0.929412 0 0 0 0 0.929412 0 0 0 0 0.929412 0 0 0 1 0"/>
<feBlend mode="normal" in2="shape" result="effect1_innerShadow_1_229"/>
</filter>
</defs>
</svg>
