<svg width="748" height="212" viewBox="0 0 748 212" fill="none" xmlns="http://www.w3.org/2000/svg">
<path d="M145.539 47H150.545V24.957H150.91L159.504 47H163.285L171.879 24.957H172.266V47H177.25V15.998H170.891L161.588 39.8457H161.223L151.898 15.998H145.539V47ZM184.748 47H194.738C200.217 47 203.719 43.8203 203.719 38.8359V38.793C203.719 33.8086 200.217 30.6074 194.738 30.6074H190.098V23.5176H184.748V47ZM207.564 47H212.914V23.5176H207.564V47ZM194.051 34.7324C196.65 34.7324 198.326 36.3438 198.326 38.7715V38.8145C198.326 41.2207 196.672 42.875 194.051 42.875H190.098V34.7324H194.051ZM232.164 47H245.42C252.037 47 256.076 43.6484 256.076 38.2129V38.1699C256.076 34.1523 253.197 31.1445 249.029 30.7578V30.3711C252.145 29.877 254.551 26.998 254.551 23.7539V23.7109C254.551 18.9629 251.006 15.998 245.119 15.998H232.164V47ZM243.766 20.3164C247.117 20.3164 249.072 21.9277 249.072 24.6777V24.7207C249.072 27.5352 246.988 29.0605 243.057 29.0605H237.707V20.3164H243.766ZM243.938 32.9922C248.17 32.9922 250.404 34.6465 250.404 37.7832V37.8262C250.404 40.9844 248.234 42.6816 244.152 42.6816H237.707V32.9922H243.938ZM268.387 47.3867C271.48 47.3867 273.973 46.0547 275.262 43.7773H275.627V47H280.912V30.9512C280.912 25.9883 277.518 23.0664 271.48 23.0664C265.895 23.0664 262.113 25.6875 261.598 29.6406L261.576 29.834H266.625L266.646 29.748C267.184 28.2012 268.773 27.3203 271.223 27.3203C274.102 27.3203 275.627 28.6094 275.627 30.9512V32.9707L269.59 33.3359C263.875 33.6797 260.674 36.1289 260.674 40.3184V40.3613C260.674 44.6367 263.918 47.3867 268.387 47.3867ZM265.959 40.1035V40.0605C265.959 38.127 267.355 37.0312 270.342 36.8379L275.627 36.4941V38.3848C275.627 41.1777 273.242 43.2832 270.02 43.2832C267.656 43.2832 265.959 42.1016 265.959 40.1035ZM292.857 47V30.9727H293.266L299.711 45.9473H303.535L310.002 30.9727H310.41V47H315.523V23.5176H308.842L301.881 39.8672H301.494L294.555 23.5176H287.744V47H292.857ZM334.193 47H339.543V27.6641H349.232V47H354.582V23.5176H334.193V47ZM371.598 47.4727C377.979 47.4727 381.115 43.7988 381.867 40.7695L381.932 40.5762H376.84L376.775 40.7266C376.26 41.8008 374.605 43.2617 371.705 43.2617C368.074 43.2617 365.797 40.8125 365.732 36.6016H382.146V34.8398C382.146 27.75 378.021 23.0664 371.34 23.0664C364.658 23.0664 360.383 27.9004 360.383 35.291V35.3125C360.383 42.7891 364.615 47.4727 371.598 47.4727ZM371.404 27.2559C374.391 27.2559 376.561 29.168 376.926 33.0137H365.775C366.184 29.2754 368.418 27.2559 371.404 27.2559ZM387.926 54.7988H393.275V43.2617H393.641C394.865 45.7969 397.551 47.3867 400.773 47.3867C406.725 47.3867 410.42 42.7676 410.42 35.291V35.248C410.42 27.8145 406.66 23.1309 400.773 23.1309C397.486 23.1309 394.93 24.6348 393.641 27.1914H393.275V23.5176H387.926V54.7988ZM399.098 42.875C395.467 42.875 393.211 39.9746 393.211 35.2695V35.2266C393.211 30.5215 395.467 27.6426 399.098 27.6426C402.75 27.6426 404.963 30.5215 404.963 35.248V35.291C404.963 39.9961 402.75 42.875 399.098 42.875ZM426.297 47.4727C432.678 47.4727 435.814 43.7988 436.566 40.7695L436.631 40.5762H431.539L431.475 40.7266C430.959 41.8008 429.305 43.2617 426.404 43.2617C422.773 43.2617 420.496 40.8125 420.432 36.6016H436.846V34.8398C436.846 27.75 432.721 23.0664 426.039 23.0664C419.357 23.0664 415.082 27.9004 415.082 35.291V35.3125C415.082 42.7891 419.314 47.4727 426.297 47.4727ZM426.104 27.2559C429.09 27.2559 431.26 29.168 431.625 33.0137H420.475C420.883 29.2754 423.117 27.2559 426.104 27.2559ZM451.283 47.4941C457.32 47.4941 461.166 44.4648 461.166 40.1035V40.0605C461.166 37.4395 459.576 35.5488 456.311 34.9043V34.5391C458.846 33.959 460.414 32.0469 460.414 29.5762V29.5332C460.414 25.5586 456.977 23.0449 451.412 23.0449C445.654 23.0449 442.367 25.8164 441.83 29.9199L441.809 30.0918H446.879L446.9 29.9844C447.223 28.2871 448.834 27.1914 451.24 27.1914C453.883 27.1914 455.193 28.4805 455.193 30.1777V30.2207C455.193 32.1543 453.904 33.2715 451.176 33.2715H447.824V36.8809H451.197C454.227 36.8809 455.859 37.9336 455.859 40.0176V40.0605C455.859 41.9941 454.141 43.3477 451.219 43.3477C448.705 43.3477 446.922 42.2949 446.428 40.4902L446.385 40.3398H441.186L441.207 40.5332C441.723 45.0879 445.955 47.4941 451.283 47.4941ZM467.053 47H478.311C483.531 47 486.711 44.3145 486.711 40.3184V40.2754C486.711 37.4395 484.67 35.291 481.576 34.9473V34.582C483.961 34.1738 485.658 32.0039 485.658 29.5547V29.5117C485.658 25.9023 482.887 23.5176 478.16 23.5176H467.053V47ZM472.338 33.2715V27.2129H476.893C479.256 27.2129 480.395 28.416 480.395 30.1992V30.2422C480.395 32.1973 479.105 33.2715 476.463 33.2715H472.338ZM472.338 43.3047V36.8594H476.85C479.771 36.8594 481.232 37.9121 481.232 40.0391V40.082C481.232 42.1016 479.922 43.3047 477.344 43.3047H472.338ZM502.523 47.4727C509.549 47.4727 513.824 42.875 513.824 35.2695V35.2266C513.824 27.6641 509.527 23.0664 502.523 23.0664C495.541 23.0664 491.223 27.6855 491.223 35.2266V35.2695C491.223 42.875 495.477 47.4727 502.523 47.4727ZM502.523 43.1328C498.807 43.1328 496.68 40.2324 496.68 35.291V35.248C496.68 30.3066 498.807 27.3848 502.523 27.3848C506.219 27.3848 508.346 30.3066 508.346 35.248V35.291C508.346 40.2324 506.24 43.1328 502.523 43.1328ZM534.857 47H540.207V23.5176H534.857V32.8203H524.953V23.5176H519.604V47H524.953V36.9668H534.857V47ZM547.146 47H552.432L562.314 31.1875H562.766V47H568.051V23.5176H562.766L552.861 39.2441H552.432V23.5176H547.146V47ZM580.104 47V30.9727H580.512L586.957 45.9473H590.781L597.248 30.9727H597.656V47H602.77V23.5176H596.088L589.127 39.8672H588.74L581.801 23.5176H574.99V47H580.104Z" fill="#161C24"/>
<path d="M116.984 105H123.969V103.734H118.391V99.8594H123.68V98.6094H118.391V94.9922H123.969V93.7266H116.984V105ZM129.945 105.148C131.969 105.148 133.102 104.062 133.445 102.539L133.461 102.453L132.117 102.461L132.102 102.508C131.789 103.445 131.07 103.945 129.938 103.945C128.438 103.945 127.469 102.703 127.469 100.766V100.75C127.469 98.8516 128.422 97.6328 129.938 97.6328C131.148 97.6328 131.898 98.3047 132.109 99.1328L132.117 99.1562H133.469L133.461 99.1094C133.211 97.6094 131.984 96.4297 129.938 96.4297C127.578 96.4297 126.078 98.1328 126.078 100.75V100.766C126.078 103.438 127.586 105.148 129.945 105.148ZM137.578 101.703L137.891 97.7031H140.82V105H142.18V96.5781H136.672L136.312 101.594C136.227 102.844 135.914 103.82 135.141 103.82C134.938 103.82 134.727 103.789 134.656 103.766V104.992C134.766 105.031 134.984 105.078 135.273 105.078C136.68 105.078 137.398 104.023 137.578 101.703ZM144.852 105H146.211L150.375 98.7188H150.5V105H151.859V96.5781H150.5L146.336 102.859H146.211V96.5781H144.852V105ZM159.766 107.953C161.258 107.953 161.953 107.406 162.648 105.516L165.938 96.5781H164.508L162.203 103.508H162.078L159.766 96.5781H158.312L161.43 105.008L161.273 105.508C160.969 106.477 160.5 106.828 159.727 106.828C159.539 106.828 159.328 106.82 159.164 106.789V107.906C159.352 107.938 159.586 107.953 159.766 107.953ZM172.383 105H175.969C177.781 105 178.852 104.047 178.852 102.586V102.57C178.852 101.594 178.172 100.844 177.102 100.695V100.57C177.891 100.406 178.477 99.6172 178.477 98.7812V98.7656C178.477 97.4453 177.547 96.5781 175.953 96.5781H172.383V105ZM173.742 100.141V97.7031H175.758C176.703 97.7031 177.125 98.1875 177.125 98.9062V98.9219C177.125 99.7188 176.633 100.141 175.539 100.141H173.742ZM173.742 103.875V101.266H175.656C176.867 101.266 177.469 101.656 177.469 102.547V102.562C177.469 103.406 176.945 103.875 175.914 103.875H173.742ZM183.469 105.148C184.602 105.148 185.484 104.656 186.016 103.758H186.141V105H187.5V99.2344C187.5 97.4844 186.352 96.4297 184.297 96.4297C182.5 96.4297 181.219 97.3203 181 98.6406L180.992 98.6875H182.352L182.359 98.6641C182.578 98.0078 183.242 97.6328 184.25 97.6328C185.508 97.6328 186.141 98.1953 186.141 99.2344V100L183.727 100.148C181.766 100.266 180.656 101.133 180.656 102.633V102.648C180.656 104.18 181.867 105.148 183.469 105.148ZM182.047 102.617V102.602C182.047 101.766 182.609 101.312 183.891 101.234L186.141 101.094V101.859C186.141 103.062 185.133 103.969 183.75 103.969C182.773 103.969 182.047 103.469 182.047 102.617ZM193.586 105.148C195.609 105.148 196.742 104.062 197.086 102.539L197.102 102.453L195.758 102.461L195.742 102.508C195.43 103.445 194.711 103.945 193.578 103.945C192.078 103.945 191.109 102.703 191.109 100.766V100.75C191.109 98.8516 192.062 97.6328 193.578 97.6328C194.789 97.6328 195.539 98.3047 195.75 99.1328L195.758 99.1562H197.109L197.102 99.1094C196.852 97.6094 195.625 96.4297 193.578 96.4297C191.219 96.4297 189.719 98.1328 189.719 100.75V100.766C189.719 103.438 191.227 105.148 193.586 105.148ZM203.742 105H207.328C209.141 105 210.211 104.047 210.211 102.586V102.57C210.211 101.594 209.531 100.844 208.461 100.695V100.57C209.25 100.406 209.836 99.6172 209.836 98.7812V98.7656C209.836 97.4453 208.906 96.5781 207.312 96.5781H203.742V105ZM205.102 100.141V97.7031H207.117C208.062 97.7031 208.484 98.1875 208.484 98.9062V98.9219C208.484 99.7188 207.992 100.141 206.898 100.141H205.102ZM205.102 103.875V101.266H207.016C208.227 101.266 208.828 101.656 208.828 102.547V102.562C208.828 103.406 208.305 103.875 207.273 103.875H205.102ZM215.898 105.148C218.297 105.148 219.781 103.492 219.781 100.797V100.781C219.781 98.0781 218.297 96.4297 215.898 96.4297C213.5 96.4297 212.016 98.0781 212.016 100.781V100.797C212.016 103.492 213.5 105.148 215.898 105.148ZM215.898 103.945C214.305 103.945 213.406 102.781 213.406 100.797V100.781C213.406 98.7891 214.305 97.6328 215.898 97.6328C217.492 97.6328 218.391 98.7891 218.391 100.781V100.797C218.391 102.781 217.492 103.945 215.898 103.945ZM224.828 105.156C226.789 105.156 228.141 104.086 228.141 102.523V102.508C228.141 101.57 227.555 100.898 226.445 100.656V100.531C227.281 100.336 227.836 99.5625 227.836 98.7109V98.6953C227.836 97.3516 226.758 96.4219 224.875 96.4219C223.156 96.4219 221.922 97.2812 221.727 98.6328L221.719 98.6875H223.047L223.055 98.6484C223.188 97.9766 223.914 97.5469 224.875 97.5469C225.953 97.5469 226.508 98.0781 226.508 98.7969V98.8125C226.508 99.6875 225.906 100.117 224.828 100.117H223.516V101.242H224.828C226.117 101.242 226.805 101.664 226.805 102.578V102.594C226.805 103.43 226.07 104.031 224.828 104.031C223.805 104.031 223.055 103.594 222.883 102.906L222.867 102.844H221.484L221.492 102.906C221.664 104.266 223.031 105.156 224.828 105.156ZM235.93 105H237.289V96.5781H235.93V100.062H231.758V96.5781H230.398V105H231.758V101.188H235.93V105ZM239.961 105H241.32L245.484 98.7188H245.609V105H246.969V96.5781H245.609L241.445 102.859H241.32V96.5781H239.961V105ZM251.438 101.164L254.734 105H256.477L252.539 100.547L256.328 96.5781H254.695L251.438 100.102H251.008V96.5781H249.648V105H251.008V101.164H251.438ZM260.172 101.703L260.484 97.7031H263.414V105H264.773V96.5781H259.266L258.906 101.594C258.82 102.844 258.508 103.82 257.734 103.82C257.531 103.82 257.32 103.789 257.25 103.766V104.992C257.359 105.031 257.578 105.078 257.867 105.078C259.273 105.078 259.992 104.023 260.172 101.703ZM267.445 105H268.805L272.969 98.7188H273.094V105H274.453V96.5781H273.094L268.93 102.859H268.805V96.5781H267.445V105ZM283.422 101.164L286.719 105H288.461L284.523 100.547L288.312 96.5781H286.68L283.422 100.102H282.992V96.5781H281.633V105H282.992V101.164H283.422ZM292.422 105.148C293.555 105.148 294.438 104.656 294.969 103.758H295.094V105H296.453V99.2344C296.453 97.4844 295.305 96.4297 293.25 96.4297C291.453 96.4297 290.172 97.3203 289.953 98.6406L289.945 98.6875H291.305L291.312 98.6641C291.531 98.0078 292.195 97.6328 293.203 97.6328C294.461 97.6328 295.094 98.1953 295.094 99.2344V100L292.68 100.148C290.719 100.266 289.609 101.133 289.609 102.633V102.648C289.609 104.18 290.82 105.148 292.422 105.148ZM291 102.617V102.602C291 101.766 291.562 101.312 292.844 101.234L295.094 101.094V101.859C295.094 103.062 294.086 103.969 292.703 103.969C291.727 103.969 291 103.469 291 102.617ZM300.875 101.164L304.172 105H305.914L301.977 100.547L305.766 96.5781H304.133L300.875 100.102H300.445V96.5781H299.086V105H300.445V101.164H300.875ZM307.789 105H309.148L313.312 98.7188H313.438V105H314.797V96.5781H313.438L309.273 102.859H309.148V96.5781H307.789V105ZM320.922 105.148C322.906 105.148 324.109 104.023 324.398 102.883L324.414 102.82H323.055L323.023 102.891C322.797 103.398 322.094 103.938 320.953 103.938C319.453 103.938 318.492 102.922 318.453 101.18H324.516V100.648C324.516 98.1328 323.125 96.4297 320.836 96.4297C318.547 96.4297 317.062 98.2109 317.062 100.812V100.82C317.062 103.461 318.516 105.148 320.922 105.148ZM320.828 97.6406C322.07 97.6406 322.992 98.4297 323.133 100.094H318.477C318.625 98.4922 319.578 97.6406 320.828 97.6406ZM326.586 101.094H331.836V99.8281H326.586V101.094ZM340.266 96.5781H333.453V97.7031H336.18V105H337.539V97.7031H340.266V96.5781ZM345.383 105.148C347.781 105.148 349.266 103.492 349.266 100.797V100.781C349.266 98.0781 347.781 96.4297 345.383 96.4297C342.984 96.4297 341.5 98.0781 341.5 100.781V100.797C341.5 103.492 342.984 105.148 345.383 105.148ZM345.383 103.945C343.789 103.945 342.891 102.781 342.891 100.797V100.781C342.891 98.7891 343.789 97.6328 345.383 97.6328C346.977 97.6328 347.875 98.7891 347.875 100.781V100.797C347.875 102.781 346.977 103.945 345.383 103.945ZM356.023 105H359.609C361.422 105 362.492 104.047 362.492 102.586V102.57C362.492 101.594 361.812 100.844 360.742 100.695V100.57C361.531 100.406 362.117 99.6172 362.117 98.7812V98.7656C362.117 97.4453 361.188 96.5781 359.594 96.5781H356.023V105ZM357.383 100.141V97.7031H359.398C360.344 97.7031 360.766 98.1875 360.766 98.9062V98.9219C360.766 99.7188 360.273 100.141 359.18 100.141H357.383ZM357.383 103.875V101.266H359.297C360.508 101.266 361.109 101.656 361.109 102.547V102.562C361.109 103.406 360.586 103.875 359.555 103.875H357.383ZM368.18 105.148C370.578 105.148 372.062 103.492 372.062 100.797V100.781C372.062 98.0781 370.578 96.4297 368.18 96.4297C365.781 96.4297 364.297 98.0781 364.297 100.781V100.797C364.297 103.492 365.781 105.148 368.18 105.148ZM368.18 103.945C366.586 103.945 365.688 102.781 365.688 100.797V100.781C365.688 98.7891 366.586 97.6328 368.18 97.6328C369.773 97.6328 370.672 98.7891 370.672 100.781V100.797C370.672 102.781 369.773 103.945 368.18 103.945ZM374.32 105H375.68V97.7031H379.773V105H381.133V96.5781H374.32V105ZM383.812 107.812H385.172V103.672H385.297C385.758 104.57 386.766 105.148 387.922 105.148C390.062 105.148 391.453 103.438 391.453 100.797V100.781C391.453 98.1562 390.055 96.4297 387.922 96.4297C386.75 96.4297 385.812 96.9844 385.297 97.9219H385.172V96.5781H383.812V107.812ZM387.609 103.945C386.078 103.945 385.141 102.742 385.141 100.797V100.781C385.141 98.8359 386.078 97.6328 387.609 97.6328C389.148 97.6328 390.062 98.8203 390.062 100.781V100.797C390.062 102.758 389.148 103.945 387.609 103.945ZM397.195 105.148C399.594 105.148 401.078 103.492 401.078 100.797V100.781C401.078 98.0781 399.594 96.4297 397.195 96.4297C394.797 96.4297 393.312 98.0781 393.312 100.781V100.797C393.312 103.492 394.797 105.148 397.195 105.148ZM397.195 103.945C395.602 103.945 394.703 102.781 394.703 100.797V100.781C394.703 98.7891 395.602 97.6328 397.195 97.6328C398.789 97.6328 399.688 98.7891 399.688 100.781V100.797C399.688 102.781 398.789 103.945 397.195 103.945ZM406.789 105.148C408.812 105.148 409.945 104.062 410.289 102.539L410.305 102.453L408.961 102.461L408.945 102.508C408.633 103.445 407.914 103.945 406.781 103.945C405.281 103.945 404.312 102.703 404.312 100.766V100.75C404.312 98.8516 405.266 97.6328 406.781 97.6328C407.992 97.6328 408.742 98.3047 408.953 99.1328L408.961 99.1562H410.312L410.305 99.1094C410.055 97.6094 408.828 96.4297 406.781 96.4297C404.422 96.4297 402.922 98.1328 402.922 100.75V100.766C402.922 103.438 404.43 105.148 406.789 105.148ZM412.445 105H415.453C417.383 105 418.617 103.891 418.617 102.148V102.133C418.617 100.391 417.383 99.2812 415.453 99.2812H413.805V96.5781H412.445V105ZM420.086 105H421.445V96.5781H420.086V105ZM415.453 100.406C416.555 100.406 417.258 101.086 417.258 102.133V102.148C417.258 103.188 416.562 103.875 415.453 103.875H413.805V100.406H415.453ZM428.617 105H429.977L434.141 98.7188H434.266V105H435.625V96.5781H434.266L430.102 102.859H429.977V96.5781H428.617V105ZM440.281 101.703L440.594 97.7031H443.523V105H444.883V96.5781H439.375L439.016 101.594C438.93 102.844 438.617 103.82 437.844 103.82C437.641 103.82 437.43 103.789 437.359 103.766V104.992C437.469 105.031 437.688 105.078 437.977 105.078C439.383 105.078 440.102 104.023 440.281 101.703ZM447.555 105H448.914L453.078 98.7188H453.203V105H454.562V96.5781H453.203L449.039 102.859H448.914V96.5781H447.555V105ZM461.742 105H463.102V97.7031H467.195V105H468.555V96.5781H461.742V105ZM471.234 107.812H472.594V103.672H472.719C473.18 104.57 474.188 105.148 475.344 105.148C477.484 105.148 478.875 103.438 478.875 100.797V100.781C478.875 98.1562 477.477 96.4297 475.344 96.4297C474.172 96.4297 473.234 96.9844 472.719 97.9219H472.594V96.5781H471.234V107.812ZM475.031 103.945C473.5 103.945 472.562 102.742 472.562 100.797V100.781C472.562 98.8359 473.5 97.6328 475.031 97.6328C476.57 97.6328 477.484 98.8203 477.484 100.781V100.797C477.484 102.758 476.57 103.945 475.031 103.945ZM484.617 105.148C487.016 105.148 488.5 103.492 488.5 100.797V100.781C488.5 98.0781 487.016 96.4297 484.617 96.4297C482.219 96.4297 480.734 98.0781 480.734 100.781V100.797C480.734 103.492 482.219 105.148 484.617 105.148ZM484.617 103.945C483.023 103.945 482.125 102.781 482.125 100.797V100.781C482.125 98.7891 483.023 97.6328 484.617 97.6328C486.211 97.6328 487.109 98.7891 487.109 100.781V100.797C487.109 102.781 486.211 103.945 484.617 103.945ZM494.266 105.156C496.695 105.156 498.188 103.5 498.188 100.828V100.812C498.188 98.2734 496.734 96.6562 494.469 96.6562C493.195 96.6562 492.188 97.2031 491.617 98.2109H491.492L491.516 98.0391C491.828 95.7422 492.68 94.8281 494.641 94.7422L495.5 94.7031C496.477 94.6562 497.367 94.4531 497.633 94.2031V93C496.906 93.2969 496.109 93.4219 495.438 93.4531L494.594 93.4922C491.586 93.6328 490.344 95.5391 490.344 100.008V100.023C490.344 103.398 491.688 105.156 494.266 105.156ZM494.266 103.953C492.656 103.953 491.734 102.805 491.734 100.828V100.812C491.734 98.9297 492.656 97.8594 494.266 97.8594C495.875 97.8594 496.797 98.9297 496.797 100.812V100.828C496.797 102.805 495.875 103.953 494.266 103.953ZM502.344 101.703L502.656 97.7031H505.586V105H506.945V96.5781H501.438L501.078 101.594C500.992 102.844 500.68 103.82 499.906 103.82C499.703 103.82 499.492 103.789 499.422 103.766V104.992C499.531 105.031 499.75 105.078 500.039 105.078C501.445 105.078 502.164 104.023 502.344 101.703ZM513.062 105.148C515.047 105.148 516.25 104.023 516.539 102.883L516.555 102.82H515.195L515.164 102.891C514.938 103.398 514.234 103.938 513.094 103.938C511.594 103.938 510.633 102.922 510.594 101.18H516.656V100.648C516.656 98.1328 515.266 96.4297 512.977 96.4297C510.688 96.4297 509.203 98.2109 509.203 100.812V100.82C509.203 103.461 510.656 105.148 513.062 105.148ZM512.969 97.6406C514.211 97.6406 515.133 98.4297 515.273 100.094H510.617C510.766 98.4922 511.719 97.6406 512.969 97.6406ZM520.273 105V99.0078H520.422L523.07 104.766H524.117L526.773 99.0078H526.922V105H528.281V96.5781H526.703L523.688 103.109H523.562L520.562 96.5781H518.914V105H520.273ZM530.961 105H533.969C535.898 105 537.133 103.891 537.133 102.148V102.133C537.133 100.391 535.898 99.2812 533.969 99.2812H532.32V96.5781H530.961V105ZM538.602 105H539.961V96.5781H538.602V105ZM533.969 100.406C535.07 100.406 535.773 101.086 535.773 102.133V102.148C535.773 103.188 535.078 103.875 533.969 103.875H532.32V100.406H533.969ZM542.219 107.867H543.227L544.453 103.422H542.898L542.219 107.867ZM554.75 105.156C556.711 105.156 558.062 104.086 558.062 102.523V102.508C558.062 101.57 557.477 100.898 556.367 100.656V100.531C557.203 100.336 557.758 99.5625 557.758 98.7109V98.6953C557.758 97.3516 556.68 96.4219 554.797 96.4219C553.078 96.4219 551.844 97.2812 551.648 98.6328L551.641 98.6875H552.969L552.977 98.6484C553.109 97.9766 553.836 97.5469 554.797 97.5469C555.875 97.5469 556.43 98.0781 556.43 98.7969V98.8125C556.43 99.6875 555.828 100.117 554.75 100.117H553.438V101.242H554.75C556.039 101.242 556.727 101.664 556.727 102.578V102.594C556.727 103.43 555.992 104.031 554.75 104.031C553.727 104.031 552.977 103.594 552.805 102.906L552.789 102.844H551.406L551.414 102.906C551.586 104.266 552.953 105.156 554.75 105.156ZM562.641 105.148C563.773 105.148 564.656 104.656 565.188 103.758H565.312V105H566.672V99.2344C566.672 97.4844 565.523 96.4297 563.469 96.4297C561.672 96.4297 560.391 97.3203 560.172 98.6406L560.164 98.6875H561.523L561.531 98.6641C561.75 98.0078 562.414 97.6328 563.422 97.6328C564.68 97.6328 565.312 98.1953 565.312 99.2344V100L562.898 100.148C560.938 100.266 559.828 101.133 559.828 102.633V102.648C559.828 104.18 561.039 105.148 562.641 105.148ZM561.219 102.617V102.602C561.219 101.766 561.781 101.312 563.062 101.234L565.312 101.094V101.859C565.312 103.062 564.305 103.969 562.922 103.969C561.945 103.969 561.219 103.469 561.219 102.617ZM569.305 105H570.664V97.7031H574.758V105H576.117V96.5781H569.305V105ZM582.258 105.148C584.656 105.148 586.141 103.492 586.141 100.797V100.781C586.141 98.0781 584.656 96.4297 582.258 96.4297C579.859 96.4297 578.375 98.0781 578.375 100.781V100.797C578.375 103.492 579.859 105.148 582.258 105.148ZM582.258 103.945C580.664 103.945 579.766 102.781 579.766 100.797V100.781C579.766 98.7891 580.664 97.6328 582.258 97.6328C583.852 97.6328 584.75 98.7891 584.75 100.781V100.797C584.75 102.781 583.852 103.945 582.258 103.945ZM590.297 101.703L590.609 97.7031H593.539V105H594.898V96.5781H589.391L589.031 101.594C588.945 102.844 588.633 103.82 587.859 103.82C587.656 103.82 587.445 103.789 587.375 103.766V104.992C587.484 105.031 587.703 105.078 587.992 105.078C589.398 105.078 590.117 104.023 590.297 101.703ZM603.102 105H604.461V96.5781H603.102V100.062H598.93V96.5781H597.57V105H598.93V101.188H603.102V105ZM607.133 105H608.492L612.656 98.7188H612.781V105H614.141V96.5781H612.781L608.617 102.859H608.492V96.5781H607.133V105ZM622.922 96.5781H616.109V97.7031H618.836V105H620.195V97.7031H622.922V96.5781ZM628.016 105.148C630 105.148 631.203 104.023 631.492 102.883L631.508 102.82H630.148L630.117 102.891C629.891 103.398 629.188 103.938 628.047 103.938C626.547 103.938 625.586 102.922 625.547 101.18H631.609V100.648C631.609 98.1328 630.219 96.4297 627.93 96.4297C625.641 96.4297 624.156 98.2109 624.156 100.812V100.82C624.156 103.461 625.609 105.148 628.016 105.148ZM627.922 97.6406C629.164 97.6406 630.086 98.4297 630.227 100.094H625.57C625.719 98.4922 626.672 97.6406 627.922 97.6406ZM261.188 133.812H262.5V131.102C265.102 131.062 266.836 129.391 266.836 126.797V126.781C266.836 124.188 265.102 122.523 262.5 122.477V119.727H261.188V122.477C258.578 122.516 256.844 124.188 256.844 126.781V126.797C256.844 129.383 258.578 131.055 261.188 131.102V133.812ZM261.188 129.938C259.367 129.891 258.211 128.703 258.211 126.797V126.781C258.211 124.867 259.367 123.68 261.188 123.641V129.938ZM262.5 129.938V123.641C264.312 123.688 265.469 124.875 265.469 126.781V126.797C265.469 128.711 264.312 129.898 262.5 129.938ZM272.57 131.148C274.969 131.148 276.453 129.492 276.453 126.797V126.781C276.453 124.078 274.969 122.43 272.57 122.43C270.172 122.43 268.688 124.078 268.688 126.781V126.797C268.688 129.492 270.172 131.148 272.57 131.148ZM272.57 129.945C270.977 129.945 270.078 128.781 270.078 126.797V126.781C270.078 124.789 270.977 123.633 272.57 123.633C274.164 123.633 275.062 124.789 275.062 126.781V126.797C275.062 128.781 274.164 129.945 272.57 129.945ZM278.719 133.812H280.078V129.672H280.203C280.664 130.57 281.672 131.148 282.828 131.148C284.969 131.148 286.359 129.438 286.359 126.797V126.781C286.359 124.156 284.961 122.43 282.828 122.43C281.656 122.43 280.719 122.984 280.203 123.922H280.078V122.578H278.719V133.812ZM282.516 129.945C280.984 129.945 280.047 128.742 280.047 126.797V126.781C280.047 124.836 280.984 123.633 282.516 123.633C284.055 123.633 284.969 124.82 284.969 126.781V126.797C284.969 128.758 284.055 129.945 282.516 129.945ZM289.992 131V125.008H290.141L292.789 130.766H293.836L296.492 125.008H296.641V131H298V122.578H296.422L293.406 129.109H293.281L290.281 122.578H288.633V131H289.992ZM301.406 133.953C302.898 133.953 303.594 133.406 304.289 131.516L307.578 122.578H306.148L303.844 129.508H303.719L301.406 122.578H299.953L303.07 131.008L302.914 131.508C302.609 132.477 302.141 132.828 301.367 132.828C301.18 132.828 300.969 132.82 300.805 132.789V133.906C300.992 133.938 301.227 133.953 301.406 133.953ZM314.023 131H315.383L319.547 124.719H319.672V131H321.031V122.578H319.672L315.508 128.859H315.383V122.578H314.023V131ZM329.57 131V125.008H329.719L332.367 130.766H333.414L336.07 125.008H336.219V131H337.578V122.578H336L332.984 129.109H332.859L329.859 122.578H328.211V131H329.57ZM340.258 131H343.266C345.195 131 346.43 129.891 346.43 128.148V128.133C346.43 126.391 345.195 125.281 343.266 125.281H341.617V122.578H340.258V131ZM347.898 131H349.258V122.578H347.898V131ZM343.266 126.406C344.367 126.406 345.07 127.086 345.07 128.133V128.148C345.07 129.188 344.375 129.875 343.266 129.875H341.617V126.406H343.266ZM356.609 131H361.008C363.406 131 364.828 129.82 364.828 127.844V127.828C364.828 126.344 363.852 125.289 362.312 125.094V124.969C363.398 124.773 364.258 123.711 364.258 122.547V122.531C364.258 120.812 362.992 119.727 360.922 119.727H356.609V131ZM360.625 120.969C362.023 120.969 362.836 121.633 362.836 122.773V122.789C362.836 123.977 361.969 124.586 360.266 124.586H358.016V120.969H360.625ZM360.664 125.797C362.461 125.797 363.383 126.461 363.383 127.758V127.773C363.383 129.07 362.492 129.758 360.797 129.758H358.016V125.797H360.664ZM369.422 131.148C370.555 131.148 371.438 130.656 371.969 129.758H372.094V131H373.453V125.234C373.453 123.484 372.305 122.43 370.25 122.43C368.453 122.43 367.172 123.32 366.953 124.641L366.945 124.688H368.305L368.312 124.664C368.531 124.008 369.195 123.633 370.203 123.633C371.461 123.633 372.094 124.195 372.094 125.234V126L369.68 126.148C367.719 126.266 366.609 127.133 366.609 128.633V128.648C366.609 130.18 367.82 131.148 369.422 131.148ZM368 128.617V128.602C368 127.766 368.562 127.312 369.844 127.234L372.094 127.094V127.859C372.094 129.062 371.086 129.969 369.703 129.969C368.727 129.969 368 129.469 368 128.617ZM377.445 131V125.008H377.594L380.242 130.766H381.289L383.945 125.008H384.094V131H385.453V122.578H383.875L380.859 129.109H380.734L377.734 122.578H376.086V131H377.445ZM392.633 131H393.992V123.703H398.086V131H399.445V122.578H392.633V131ZM405.562 131.148C407.547 131.148 408.75 130.023 409.039 128.883L409.055 128.82H407.695L407.664 128.891C407.438 129.398 406.734 129.938 405.594 129.938C404.094 129.938 403.133 128.922 403.094 127.18H409.156V126.648C409.156 124.133 407.766 122.43 405.477 122.43C403.188 122.43 401.703 124.211 401.703 126.812V126.82C401.703 129.461 403.156 131.148 405.562 131.148ZM405.469 123.641C406.711 123.641 407.633 124.43 407.773 126.094H403.117C403.266 124.492 404.219 123.641 405.469 123.641ZM411.422 133.812H412.781V129.672H412.906C413.367 130.57 414.375 131.148 415.531 131.148C417.672 131.148 419.062 129.438 419.062 126.797V126.781C419.062 124.156 417.664 122.43 415.531 122.43C414.359 122.43 413.422 122.984 412.906 123.922H412.781V122.578H411.422V133.812ZM415.219 129.945C413.688 129.945 412.75 128.742 412.75 126.797V126.781C412.75 124.836 413.688 123.633 415.219 123.633C416.758 123.633 417.672 124.82 417.672 126.781V126.797C417.672 128.758 416.758 129.945 415.219 129.945ZM424.781 131.148C426.766 131.148 427.969 130.023 428.258 128.883L428.273 128.82H426.914L426.883 128.891C426.656 129.398 425.953 129.938 424.812 129.938C423.312 129.938 422.352 128.922 422.312 127.18H428.375V126.648C428.375 124.133 426.984 122.43 424.695 122.43C422.406 122.43 420.922 124.211 420.922 126.812V126.82C420.922 129.461 422.375 131.148 424.781 131.148ZM424.688 123.641C425.93 123.641 426.852 124.43 426.992 126.094H422.336C422.484 124.492 423.438 123.641 424.688 123.641ZM433.5 131.156C435.461 131.156 436.812 130.086 436.812 128.523V128.508C436.812 127.57 436.227 126.898 435.117 126.656V126.531C435.953 126.336 436.508 125.562 436.508 124.711V124.695C436.508 123.352 435.43 122.422 433.547 122.422C431.828 122.422 430.594 123.281 430.398 124.633L430.391 124.688H431.719L431.727 124.648C431.859 123.977 432.586 123.547 433.547 123.547C434.625 123.547 435.18 124.078 435.18 124.797V124.812C435.18 125.688 434.578 126.117 433.5 126.117H432.188V127.242H433.5C434.789 127.242 435.477 127.664 435.477 128.578V128.594C435.477 129.43 434.742 130.031 433.5 130.031C432.477 130.031 431.727 129.594 431.555 128.906L431.539 128.844H430.156L430.164 128.906C430.336 130.266 431.703 131.156 433.5 131.156ZM439.07 131H442.656C444.469 131 445.539 130.047 445.539 128.586V128.57C445.539 127.594 444.859 126.844 443.789 126.695V126.57C444.578 126.406 445.164 125.617 445.164 124.781V124.766C445.164 123.445 444.234 122.578 442.641 122.578H439.07V131ZM440.43 126.141V123.703H442.445C443.391 123.703 443.812 124.188 443.812 124.906V124.922C443.812 125.719 443.32 126.141 442.227 126.141H440.43ZM440.43 129.875V127.266H442.344C443.555 127.266 444.156 127.656 444.156 128.547V128.562C444.156 129.406 443.633 129.875 442.602 129.875H440.43ZM451.227 131.148C453.625 131.148 455.109 129.492 455.109 126.797V126.781C455.109 124.078 453.625 122.43 451.227 122.43C448.828 122.43 447.344 124.078 447.344 126.781V126.797C447.344 129.492 448.828 131.148 451.227 131.148ZM451.227 129.945C449.633 129.945 448.734 128.781 448.734 126.797V126.781C448.734 124.789 449.633 123.633 451.227 123.633C452.82 123.633 453.719 124.789 453.719 126.781V126.797C453.719 128.781 452.82 129.945 451.227 129.945ZM462.898 131H464.258V122.578H462.898V126.062H458.727V122.578H457.367V131H458.727V127.188H462.898V131ZM466.93 131H468.289L472.453 124.719H472.578V131H473.938V122.578H472.578L468.414 128.859H468.289V122.578H466.93V131ZM477.977 131V125.008H478.125L480.773 130.766H481.82L484.477 125.008H484.625V131H485.984V122.578H484.406L481.391 129.109H481.266L478.266 122.578H476.617V131H477.977ZM489.703 131.078C490.266 131.078 490.719 130.617 490.719 130.062C490.719 129.5 490.266 129.047 489.703 129.047C489.148 129.047 488.688 129.5 488.688 130.062C488.688 130.617 489.148 131.078 489.703 131.078Z" fill="#454F5B"/>
<rect y="162" width="240" height="50" fill="#161C24" fill-opacity="0.04"/>
<path opacity="0.8" d="M17.5156 193H21.9141C24.3125 193 25.7344 191.82 25.7344 189.844V189.828C25.7344 188.344 24.7578 187.289 23.2188 187.094V186.969C24.3047 186.773 25.1641 185.711 25.1641 184.547V184.531C25.1641 182.812 23.8984 181.727 21.8281 181.727H17.5156V193ZM21.5312 182.969C22.9297 182.969 23.7422 183.633 23.7422 184.773V184.789C23.7422 185.977 22.875 186.586 21.1719 186.586H18.9219V182.969H21.5312ZM21.5703 187.797C23.3672 187.797 24.2891 188.461 24.2891 189.758V189.773C24.2891 191.07 23.3984 191.758 21.7031 191.758H18.9219V187.797H21.5703ZM30.3281 193.148C31.4609 193.148 32.3438 192.656 32.875 191.758H33V193H34.3594V187.234C34.3594 185.484 33.2109 184.43 31.1562 184.43C29.3594 184.43 28.0781 185.32 27.8594 186.641L27.8516 186.688H29.2109L29.2188 186.664C29.4375 186.008 30.1016 185.633 31.1094 185.633C32.3672 185.633 33 186.195 33 187.234V188L30.5859 188.148C28.625 188.266 27.5156 189.133 27.5156 190.633V190.648C27.5156 192.18 28.7266 193.148 30.3281 193.148ZM28.9062 190.617V190.602C28.9062 189.766 29.4688 189.312 30.75 189.234L33 189.094V189.859C33 191.062 31.9922 191.969 30.6094 191.969C29.6328 191.969 28.9062 191.469 28.9062 190.617ZM36.9922 193H47.3984V184.578H46.0391V191.875H42.875V184.578H41.5156V191.875H38.3516V184.578H36.9922V193ZM53.5156 193.148C55.5 193.148 56.7031 192.023 56.9922 190.883L57.0078 190.82H55.6484L55.6172 190.891C55.3906 191.398 54.6875 191.938 53.5469 191.938C52.0469 191.938 51.0859 190.922 51.0469 189.18H57.1094V188.648C57.1094 186.133 55.7188 184.43 53.4297 184.43C51.1406 184.43 49.6562 186.211 49.6562 188.812V188.82C49.6562 191.461 51.1094 193.148 53.5156 193.148ZM53.4219 185.641C54.6641 185.641 55.5859 186.43 55.7266 188.094H51.0703C51.2188 186.492 52.1719 185.641 53.4219 185.641ZM63.8672 193H65.2266L69.3906 186.719H69.5156V193H70.875V184.578H69.5156L65.3516 190.859H65.2266V184.578H63.8672V193ZM74.9141 193V187.008H75.0625L77.7109 192.766H78.7578L81.4141 187.008H81.5625V193H82.9219V184.578H81.3438L78.3281 191.109H78.2031L75.2031 184.578H73.5547V193H74.9141ZM90.0703 193H91.4297V184.578H88.5C86.5703 184.578 85.3359 185.633 85.3359 187.359V187.375C85.3359 188.523 86.0547 189.398 87.2422 189.734L84.8906 193H86.4922L88.6406 189.984H90.0703V193ZM88.5 188.859C87.3984 188.859 86.7266 188.227 86.7266 187.344V187.328C86.7266 186.312 87.3906 185.703 88.5 185.703H90.0703V188.859H88.5Z" fill="#454F5B"/>
<rect x="264" y="162" width="240" height="50" fill="#161C24" fill-opacity="0.04"/>
<path opacity="0.8" d="M281.516 193H285.914C288.312 193 289.734 191.82 289.734 189.844V189.828C289.734 188.344 288.758 187.289 287.219 187.094V186.969C288.305 186.773 289.164 185.711 289.164 184.547V184.531C289.164 182.812 287.898 181.727 285.828 181.727H281.516V193ZM285.531 182.969C286.93 182.969 287.742 183.633 287.742 184.773V184.789C287.742 185.977 286.875 186.586 285.172 186.586H282.922V182.969H285.531ZM285.57 187.797C287.367 187.797 288.289 188.461 288.289 189.758V189.773C288.289 191.07 287.398 191.758 285.703 191.758H282.922V187.797H285.57ZM294.328 193.148C295.461 193.148 296.344 192.656 296.875 191.758H297V193H298.359V187.234C298.359 185.484 297.211 184.43 295.156 184.43C293.359 184.43 292.078 185.32 291.859 186.641L291.852 186.688H293.211L293.219 186.664C293.438 186.008 294.102 185.633 295.109 185.633C296.367 185.633 297 186.195 297 187.234V188L294.586 188.148C292.625 188.266 291.516 189.133 291.516 190.633V190.648C291.516 192.18 292.727 193.148 294.328 193.148ZM292.906 190.617V190.602C292.906 189.766 293.469 189.312 294.75 189.234L297 189.094V189.859C297 191.062 295.992 191.969 294.609 191.969C293.633 191.969 292.906 191.469 292.906 190.617ZM300.992 193H311.398V184.578H310.039V191.875H306.875V184.578H305.516V191.875H302.352V184.578H300.992V193ZM318.672 193H325.656V191.734H320.078V187.859H325.367V186.609H320.078V182.992H325.656V181.727H318.672V193ZM328.031 193H329.391V187.781C329.391 186.594 330.227 185.633 331.328 185.633C332.391 185.633 333.078 186.281 333.078 187.281V193H334.438V187.586C334.438 186.516 335.211 185.633 336.383 185.633C337.57 185.633 338.141 186.25 338.141 187.492V193H339.5V187.18C339.5 185.414 338.539 184.43 336.82 184.43C335.656 184.43 334.695 185.016 334.242 185.906H334.117C333.727 185.031 332.93 184.43 331.789 184.43C330.688 184.43 329.891 184.953 329.516 185.859H329.391V184.578H328.031V193ZM344.266 193.148C345.398 193.148 346.281 192.656 346.812 191.758H346.938V193H348.297V187.234C348.297 185.484 347.148 184.43 345.094 184.43C343.297 184.43 342.016 185.32 341.797 186.641L341.789 186.688H343.148L343.156 186.664C343.375 186.008 344.039 185.633 345.047 185.633C346.305 185.633 346.938 186.195 346.938 187.234V188L344.523 188.148C342.562 188.266 341.453 189.133 341.453 190.633V190.648C341.453 192.18 342.664 193.148 344.266 193.148ZM342.844 190.617V190.602C342.844 189.766 343.406 189.312 344.688 189.234L346.938 189.094V189.859C346.938 191.062 345.93 191.969 344.547 191.969C343.57 191.969 342.844 191.469 342.844 190.617ZM351.5 182.953C352.016 182.953 352.438 182.531 352.438 182.016C352.438 181.5 352.016 181.078 351.5 181.078C350.984 181.078 350.562 181.5 350.562 182.016C350.562 182.531 350.984 182.953 351.5 182.953ZM350.812 193H352.172V184.578H350.812V193ZM354.812 193H356.172V181.234H354.812V193Z" fill="#454F5B"/>
<rect x="528" y="162" width="220" height="50" fill="#4295E4"/>
<path d="M604.992 181.539C606.612 181.539 607.896 182.062 608.844 183.109C609.797 184.156 610.273 185.576 610.273 187.367C610.273 189.159 609.799 190.578 608.852 191.625C607.904 192.667 606.617 193.188 604.992 193.188C603.367 193.188 602.081 192.667 601.133 191.625C600.185 190.578 599.711 189.159 599.711 187.367C599.711 185.576 600.185 184.156 601.133 183.109C602.081 182.062 603.367 181.539 604.992 181.539ZM604.992 183.078C603.919 183.078 603.068 183.464 602.438 184.234C601.812 185.005 601.5 186.049 601.5 187.367C601.5 188.68 601.812 189.721 602.438 190.492C603.068 191.263 603.919 191.648 604.992 191.648C606.06 191.648 606.906 191.263 607.531 190.492C608.161 189.721 608.477 188.68 608.477 187.367C608.477 186.049 608.161 185.005 607.531 184.234C606.906 183.464 606.06 183.078 604.992 183.078ZM618.141 184.781V186.117H615.562V193H613.883V186.117H611.305V184.781H618.141ZM624.695 193V186.117H621.055V193H619.375V184.781H626.383V193H624.695ZM632.492 184.648C633.539 184.648 634.378 185.031 635.008 185.797C635.638 186.562 635.953 187.594 635.953 188.891C635.953 190.188 635.641 191.221 635.016 191.992C634.391 192.758 633.56 193.141 632.523 193.141C631.94 193.141 631.422 193.008 630.969 192.742C630.521 192.477 630.177 192.112 629.938 191.648H629.898V195.719H628.211V184.781H629.844V186.195H629.875C630.12 185.716 630.471 185.339 630.93 185.062C631.388 184.786 631.909 184.648 632.492 184.648ZM632.047 191.711C632.714 191.711 633.242 191.458 633.633 190.953C634.023 190.443 634.219 189.755 634.219 188.891C634.219 188.031 634.023 187.346 633.633 186.836C633.242 186.326 632.714 186.07 632.047 186.07C631.401 186.07 630.88 186.328 630.484 186.844C630.089 187.359 629.891 188.042 629.891 188.891C629.891 189.745 630.086 190.43 630.477 190.945C630.872 191.456 631.396 191.711 632.047 191.711ZM640.289 191.805C640.883 191.805 641.38 191.625 641.781 191.266C642.188 190.901 642.391 190.453 642.391 189.922V189.273L640.367 189.398C639.862 189.435 639.471 189.56 639.195 189.773C638.924 189.982 638.789 190.263 638.789 190.617C638.789 190.977 638.924 191.266 639.195 191.484C639.471 191.698 639.836 191.805 640.289 191.805ZM639.82 193.141C639.013 193.141 638.354 192.911 637.844 192.453C637.339 191.995 637.086 191.398 637.086 190.664C637.086 189.945 637.352 189.375 637.883 188.953C638.414 188.526 639.167 188.286 640.141 188.234L642.391 188.102V187.469C642.391 187.01 642.245 186.654 641.953 186.398C641.661 186.138 641.258 186.008 640.742 186.008C640.263 186.008 639.872 186.115 639.57 186.328C639.273 186.542 639.086 186.836 639.008 187.211H637.414C637.461 186.451 637.789 185.831 638.398 185.352C639.008 184.872 639.81 184.633 640.805 184.633C641.799 184.633 642.591 184.878 643.18 185.367C643.773 185.857 644.07 186.513 644.07 187.336V193H642.453V191.648H642.414C642.18 192.102 641.823 192.464 641.344 192.734C640.87 193.005 640.362 193.141 639.82 193.141ZM649.234 186.008H647.508V188.164H649.07C650.023 188.164 650.5 187.799 650.5 187.07C650.5 186.732 650.391 186.471 650.172 186.289C649.953 186.102 649.641 186.008 649.234 186.008ZM649.18 189.344H647.508V191.773H649.367C649.846 191.773 650.211 191.672 650.461 191.469C650.711 191.26 650.836 190.958 650.836 190.562C650.836 189.75 650.284 189.344 649.18 189.344ZM645.844 193V184.781H649.578C650.38 184.781 651.008 184.969 651.461 185.344C651.919 185.714 652.148 186.224 652.148 186.875C652.148 187.302 652.013 187.688 651.742 188.031C651.477 188.37 651.146 188.576 650.75 188.648V188.711C651.281 188.784 651.708 188.995 652.031 189.344C652.354 189.688 652.516 190.117 652.516 190.633C652.516 191.357 652.255 191.932 651.734 192.359C651.219 192.786 650.516 193 649.625 193H645.844ZM655.68 193H654.016V184.781H655.68V190.539H655.742L659.539 184.781H661.203V193H659.539V187.227H659.477L655.68 193ZM669.266 184.781V186.117H666.688V193H665.008V186.117H662.43V184.781H669.266ZM673.602 188.641H672.18V191.672H673.602C674.086 191.672 674.471 191.534 674.758 191.258C675.049 190.977 675.195 190.609 675.195 190.156C675.195 189.698 675.049 189.331 674.758 189.055C674.466 188.779 674.081 188.641 673.602 188.641ZM670.5 193V184.781H672.18V187.32H673.75C674.703 187.32 675.461 187.578 676.023 188.094C676.591 188.604 676.875 189.292 676.875 190.156C676.875 191.026 676.591 191.719 676.023 192.234C675.461 192.745 674.703 193 673.75 193H670.5Z" fill="white"/>
</svg>
