<svg width="1245" height="40" viewBox="0 0 1245 40" fill="none" xmlns="http://www.w3.org/2000/svg">
<rect x="0.5" y="0.5" width="287" height="39" fill="white"/>
<rect x="0.5" y="0.5" width="287" height="39" stroke="#ADD7FF"/>
<path d="M82.912 19.696C82.784 21.136 82.2827 22.2613 81.408 23.072C80.544 23.872 79.4027 24.272 77.984 24.272C76.3627 24.272 75.0773 23.7387 74.128 22.672C73.1787 21.5947 72.704 20.144 72.704 18.32C72.704 16.6133 73.1787 15.1947 74.128 14.064C75.088 12.9227 76.4107 12.352 78.096 12.352C79.3013 12.352 80.3627 12.6773 81.28 13.328C82.1973 13.9787 82.7093 14.88 82.816 16.032H81.312C81.1413 15.2853 80.768 14.704 80.192 14.288C79.616 13.8613 78.9067 13.648 78.064 13.648C76.7947 13.648 75.8347 14.096 75.184 14.992C74.544 15.888 74.224 16.992 74.224 18.304C74.224 19.7547 74.5653 20.896 75.248 21.728C75.9307 22.56 76.864 22.976 78.048 22.976C79.0187 22.976 79.792 22.6987 80.368 22.144C80.944 21.5787 81.2907 20.7627 81.408 19.696H82.912ZM85.3389 14.592C85.7015 14.0267 86.1389 13.6107 86.6509 13.344C87.1629 13.0667 87.8135 12.9013 88.6029 12.848C89.4882 12.784 90.0269 12.6987 90.2189 12.592C90.3469 12.528 90.4429 12.4427 90.5069 12.336H91.8669C91.8349 12.5067 91.7869 12.6613 91.7229 12.8C91.6695 12.9387 91.6055 13.0613 91.5309 13.168C91.4669 13.264 91.3709 13.3547 91.2429 13.44C91.1255 13.5253 91.0242 13.6 90.9389 13.664C90.8535 13.7173 90.7255 13.7707 90.5549 13.824C90.3949 13.8667 90.2669 13.904 90.1709 13.936C90.0749 13.9573 89.9255 13.9787 89.7229 14C89.5309 14.0213 89.3922 14.0373 89.3069 14.048C89.2215 14.0587 89.0669 14.0693 88.8429 14.08C88.6189 14.0907 88.4749 14.1013 88.4109 14.112C87.5362 14.176 86.8535 14.5173 86.3629 15.136C85.8722 15.744 85.5629 16.56 85.4349 17.584H85.4829C85.7175 17.0187 86.0909 16.5653 86.6029 16.224C87.1149 15.8827 87.7069 15.712 88.3789 15.712C89.5522 15.712 90.4695 16.0853 91.1309 16.832C91.8029 17.568 92.1389 18.6027 92.1389 19.936C92.1389 21.312 91.7975 22.3787 91.1149 23.136C90.4429 23.8933 89.4935 24.272 88.2669 24.272C87.2642 24.272 86.4162 23.9787 85.7229 23.392C85.0295 22.7947 84.6029 21.9413 84.4429 20.832C84.3789 20.384 84.3469 19.8827 84.3469 19.328C84.3469 17.184 84.6775 15.6053 85.3389 14.592ZM85.7389 19.984C85.7389 20.9227 85.9629 21.68 86.4109 22.256C86.8695 22.832 87.4935 23.12 88.2829 23.12C89.0509 23.12 89.6535 22.8427 90.0909 22.288C90.5282 21.7333 90.7469 20.96 90.7469 19.968C90.7469 18.9973 90.5229 18.2347 90.0749 17.68C89.6269 17.1253 89.0189 16.848 88.2509 16.848C87.4829 16.848 86.8695 17.1307 86.4109 17.696C85.9629 18.2507 85.7389 19.0133 85.7389 19.984ZM95.0384 15.744V16.912C95.6357 15.9627 96.5637 15.488 97.8224 15.488C98.9744 15.488 99.8864 15.8773 100.558 16.656C101.241 17.4347 101.582 18.4907 101.582 19.824C101.582 21.1573 101.246 22.224 100.574 23.024C99.913 23.8133 99.017 24.208 97.8864 24.208C96.7024 24.208 95.7797 23.7547 95.1184 22.848V27.184H93.7584V15.744H95.0384ZM97.6144 16.624C96.825 16.624 96.201 16.912 95.7424 17.488C95.2944 18.0533 95.0704 18.8373 95.0704 19.84C95.0704 20.8427 95.2997 21.632 95.7584 22.208C96.2277 22.7733 96.8624 23.056 97.6624 23.056C98.441 23.056 99.0544 22.768 99.5024 22.192C99.9504 21.616 100.174 20.832 100.174 19.84C100.174 18.8373 99.945 18.0533 99.4864 17.488C99.0384 16.912 98.4144 16.624 97.6144 16.624ZM103.899 16.688C104.624 15.8987 105.611 15.504 106.859 15.504C108.107 15.504 109.077 15.8827 109.771 16.64C110.464 17.3973 110.811 18.4587 110.811 19.824C110.811 21.2213 110.464 22.3093 109.771 23.088C109.077 23.8667 108.101 24.256 106.843 24.256C105.584 24.256 104.597 23.872 103.883 23.104C103.168 22.336 102.811 21.2693 102.811 19.904C102.811 18.5493 103.173 17.4773 103.899 16.688ZM108.715 17.52C108.256 16.9333 107.627 16.64 106.827 16.64C106.027 16.64 105.392 16.9333 104.923 17.52C104.453 18.1067 104.219 18.8907 104.219 19.872C104.219 20.8853 104.448 21.68 104.907 22.256C105.376 22.8213 106.027 23.104 106.859 23.104C107.659 23.104 108.283 22.816 108.731 22.24C109.189 21.664 109.419 20.8693 109.419 19.856C109.419 18.8747 109.184 18.096 108.715 17.52ZM119.534 20.992C119.417 21.984 119.038 22.7733 118.398 23.36C117.769 23.9467 116.948 24.24 115.934 24.24C114.686 24.24 113.721 23.856 113.038 23.088C112.356 22.3093 112.014 21.2747 112.014 19.984C112.014 18.608 112.372 17.52 113.086 16.72C113.801 15.9093 114.766 15.504 115.982 15.504C116.996 15.504 117.806 15.76 118.414 16.272C119.022 16.7733 119.38 17.4933 119.486 18.432H118.078C117.833 17.2373 117.14 16.64 115.998 16.64C115.209 16.64 114.585 16.9333 114.126 17.52C113.668 18.096 113.438 18.88 113.438 19.872C113.438 20.8747 113.657 21.664 114.094 22.24C114.532 22.816 115.134 23.104 115.902 23.104C116.521 23.104 117.022 22.9227 117.406 22.56C117.801 22.1973 118.052 21.6747 118.158 20.992H119.534ZM122.768 24H121.024V15.744H122.384V22.48H122.416L126.128 15.744H127.872V24H126.512V17.264H126.48L122.768 24ZM136.235 16.944H133.275V24H131.915V16.944H128.955V15.744H136.235V16.944ZM143.529 19.584C144.02 20.032 144.265 20.6453 144.265 21.424C144.265 22.2027 144.025 22.8267 143.545 23.296C143.076 23.7653 142.441 24 141.641 24H137.273V15.744H138.633V18.896H141.577C142.388 18.896 143.038 19.1253 143.529 19.584ZM141.145 20.064H138.633V22.8H141.145C141.7 22.8 142.121 22.6827 142.409 22.448C142.708 22.2027 142.857 21.8613 142.857 21.424C142.857 20.5173 142.286 20.064 141.145 20.064ZM161.207 19.744C161.207 20.5653 161.106 21.296 160.903 21.936C160.7 22.576 160.338 23.1147 159.815 23.552C159.303 23.9787 158.658 24.192 157.879 24.192C157.58 24.192 157.26 24.1067 156.919 23.936C156.578 23.7653 156.322 23.5787 156.151 23.376H156.119V27.184H154.775V23.376H154.743C154.572 23.5787 154.316 23.7653 153.975 23.936C153.634 24.1067 153.314 24.192 153.015 24.192C152.236 24.192 151.586 23.9787 151.063 23.552C150.551 23.1147 150.194 22.576 149.991 21.936C149.788 21.296 149.687 20.5653 149.687 19.744C149.687 18.4427 149.975 17.4187 150.551 16.672C151.127 15.9147 151.911 15.536 152.903 15.536C153.244 15.536 153.591 15.632 153.943 15.824C154.306 16.0053 154.567 16.208 154.727 16.432H154.775V12.608H156.119V16.432H156.167C156.327 16.208 156.583 16.0053 156.935 15.824C157.298 15.632 157.65 15.536 157.991 15.536C158.983 15.536 159.767 15.9147 160.343 16.672C160.919 17.4187 161.207 18.4427 161.207 19.744ZM159.799 19.776C159.799 18.8267 159.634 18.0747 159.303 17.52C158.972 16.9547 158.471 16.672 157.799 16.672C157.447 16.672 157.106 16.7627 156.775 16.944C156.455 17.1253 156.236 17.4187 156.119 17.824V21.984C156.172 22.2827 156.348 22.5387 156.647 22.752C156.956 22.9547 157.314 23.056 157.719 23.056C158.114 23.056 158.45 22.96 158.727 22.768C159.015 22.576 159.234 22.3147 159.383 21.984C159.532 21.6427 159.639 21.296 159.703 20.944C159.767 20.5813 159.799 20.192 159.799 19.776ZM154.775 21.984V17.824C154.658 17.4187 154.434 17.1253 154.103 16.944C153.783 16.7627 153.447 16.672 153.095 16.672C152.423 16.672 151.922 16.9547 151.591 17.52C151.26 18.0747 151.095 18.8267 151.095 19.776C151.095 20.192 151.127 20.5813 151.191 20.944C151.255 21.296 151.362 21.6427 151.511 21.984C151.66 22.3147 151.874 22.576 152.151 22.768C152.439 22.96 152.78 23.056 153.175 23.056C153.58 23.056 153.932 22.9547 154.231 22.752C154.54 22.5387 154.722 22.2827 154.775 21.984ZM164.612 24H162.868V15.744H164.228V22.48H164.26L167.972 15.744H169.716V24H168.356V17.264H168.324L164.612 24ZM178.638 15.744V24H177.278V16.944H174.334L174.222 20.592C174.19 21.8507 173.961 22.7627 173.534 23.328C173.108 23.8933 172.574 24.176 171.934 24.176C171.54 24.176 171.214 24.1173 170.958 24V22.896C171.097 22.9707 171.337 23.008 171.678 23.008C171.998 23.008 172.27 22.8373 172.494 22.496C172.729 22.144 172.857 21.5573 172.878 20.736L173.022 15.744H178.638ZM186.857 19.584C187.348 20.032 187.593 20.6453 187.593 21.424C187.593 22.2027 187.353 22.8267 186.873 23.296C186.404 23.7653 185.769 24 184.969 24H180.601V15.744H181.961V18.896H184.905C185.716 18.896 186.366 19.1253 186.857 19.584ZM184.473 20.064H181.961V22.8H184.473C185.028 22.8 185.449 22.6827 185.737 22.448C186.036 22.2027 186.185 21.8613 186.185 21.424C186.185 20.5173 185.614 20.064 184.473 20.064ZM194.36 16.944H191.4V24H190.04V16.944H187.08V15.744H194.36V16.944ZM196.726 15.744V16.912C197.323 15.9627 198.251 15.488 199.51 15.488C200.662 15.488 201.574 15.8773 202.246 16.656C202.929 17.4347 203.27 18.4907 203.27 19.824C203.27 21.1573 202.934 22.224 202.262 23.024C201.601 23.8133 200.705 24.208 199.574 24.208C198.39 24.208 197.467 23.7547 196.806 22.848V27.184H195.446V15.744H196.726ZM199.302 16.624C198.513 16.624 197.889 16.912 197.43 17.488C196.982 18.0533 196.758 18.8373 196.758 19.84C196.758 20.8427 196.987 21.632 197.446 22.208C197.915 22.7733 198.55 23.056 199.35 23.056C200.129 23.056 200.742 22.768 201.19 22.192C201.638 21.616 201.862 20.832 201.862 19.84C201.862 18.8373 201.633 18.0533 201.174 17.488C200.726 16.912 200.102 16.624 199.302 16.624ZM212.802 15.744H214.162V24H212.802V15.744ZM210.754 19.584C211.245 20.032 211.49 20.6453 211.49 21.424C211.49 22.2027 211.25 22.8267 210.77 23.296C210.301 23.7653 209.666 24 208.866 24H204.882V15.744H206.242V18.896H208.802C209.613 18.896 210.264 19.1253 210.754 19.584ZM208.37 20.064H206.242V22.8H208.37C208.925 22.8 209.346 22.6827 209.634 22.448C209.933 22.2027 210.082 21.8613 210.082 21.424C210.082 20.5173 209.512 20.064 208.37 20.064Z" fill="#161C24"/>
<path d="M323.929 25.2324C326.649 25.2324 328.352 23.2432 328.352 20.0781V20.0645C328.352 16.8926 326.649 14.9033 323.936 14.9033C321.837 14.9033 320.196 16.1885 319.882 18.0684L319.875 18.1094H321.126L321.146 18.0342C321.475 16.8311 322.568 16.0381 323.936 16.0381C325.686 16.0381 326.854 17.3232 327.053 19.4014H322.678V20.5088H327.073C326.937 22.7236 325.747 24.0977 323.929 24.0977C322.534 24.0977 321.447 23.3867 321.14 22.2998L321.126 22.252H319.875L319.882 22.293C320.169 24.0088 321.823 25.2324 323.929 25.2324ZM332.057 22.1152L332.33 18.6152H334.894V25H336.083V17.6309H331.264L330.949 22.0195C330.874 23.1133 330.601 23.9678 329.924 23.9678C329.746 23.9678 329.562 23.9404 329.5 23.9199V24.9932C329.596 25.0273 329.787 25.0684 330.04 25.0684C331.271 25.0684 331.899 24.1455 332.057 22.1152ZM341.436 25.1299C343.172 25.1299 344.225 24.1455 344.478 23.1475L344.491 23.0928H343.302L343.274 23.1543C343.076 23.5986 342.461 24.0703 341.463 24.0703C340.15 24.0703 339.31 23.1816 339.275 21.6572H344.58V21.1924C344.58 18.9912 343.363 17.501 341.36 17.501C339.357 17.501 338.059 19.0596 338.059 21.3359V21.3428C338.059 23.6533 339.33 25.1299 341.436 25.1299ZM341.354 18.5605C342.44 18.5605 343.247 19.251 343.37 20.707H339.296C339.426 19.3057 340.26 18.5605 341.354 18.5605ZM348.121 21.6436L351.006 25H352.53L349.085 21.1035L352.4 17.6309H350.972L348.121 20.7139H347.745V17.6309H346.556V25H347.745V21.6436H348.121ZM359.168 17.6309H353.207V18.6152H355.593V25H356.782V18.6152H359.168V17.6309ZM360.891 27.4609H362.08V23.8379H362.189C362.593 24.624 363.475 25.1299 364.486 25.1299C366.359 25.1299 367.576 23.6328 367.576 21.3223V21.3086C367.576 19.0117 366.353 17.501 364.486 17.501C363.461 17.501 362.641 17.9863 362.189 18.8066H362.08V17.6309H360.891V27.4609ZM364.213 24.0771C362.873 24.0771 362.053 23.0244 362.053 21.3223V21.3086C362.053 19.6064 362.873 18.5537 364.213 18.5537C365.56 18.5537 366.359 19.5928 366.359 21.3086V21.3223C366.359 23.0381 365.56 24.0771 364.213 24.0771ZM372.601 25.1299C374.699 25.1299 375.998 23.6807 375.998 21.3223V21.3086C375.998 18.9434 374.699 17.501 372.601 17.501C370.502 17.501 369.203 18.9434 369.203 21.3086V21.3223C369.203 23.6807 370.502 25.1299 372.601 25.1299ZM372.601 24.0771C371.206 24.0771 370.42 23.0586 370.42 21.3223V21.3086C370.42 19.5654 371.206 18.5537 372.601 18.5537C373.995 18.5537 374.781 19.5654 374.781 21.3086V21.3223C374.781 23.0586 373.995 24.0771 372.601 24.0771ZM382.813 25H384.003V17.6309H382.813V20.6797H379.163V17.6309H377.974V25H379.163V21.6641H382.813V25ZM391.181 25H392.37V17.6309H391.181V20.6797H387.53V17.6309H386.341V25H387.53V21.6641H391.181V25ZM394.708 25H397.34C399.028 25 400.108 24.0293 400.108 22.5049V22.4912C400.108 20.9668 399.028 19.9961 397.34 19.9961H395.897V17.6309H394.708V25ZM401.394 25H402.583V17.6309H401.394V25ZM397.34 20.9805C398.304 20.9805 398.919 21.5752 398.919 22.4912V22.5049C398.919 23.4141 398.311 24.0156 397.34 24.0156H395.897V20.9805H397.34ZM407.936 25.1299C409.672 25.1299 410.725 24.1455 410.978 23.1475L410.991 23.0928H409.802L409.774 23.1543C409.576 23.5986 408.961 24.0703 407.963 24.0703C406.65 24.0703 405.81 23.1816 405.775 21.6572H411.08V21.1924C411.08 18.9912 409.863 17.501 407.86 17.501C405.857 17.501 404.559 19.0596 404.559 21.3359V21.3428C404.559 23.6533 405.83 25.1299 407.936 25.1299ZM407.854 18.5605C408.94 18.5605 409.747 19.251 409.87 20.707H405.796C405.926 19.3057 406.76 18.5605 407.854 18.5605ZM418.559 21.6436L421.443 25H422.968L419.522 21.1035L422.838 17.6309H421.409L418.559 20.7139H418.183V17.6309H416.993V25H418.183V21.6436H418.559ZM427.302 25.1299C429.4 25.1299 430.699 23.6807 430.699 21.3223V21.3086C430.699 18.9434 429.4 17.501 427.302 17.501C425.203 17.501 423.904 18.9434 423.904 21.3086V21.3223C423.904 23.6807 425.203 25.1299 427.302 25.1299ZM427.302 24.0771C425.907 24.0771 425.121 23.0586 425.121 21.3223V21.3086C425.121 19.5654 425.907 18.5537 427.302 18.5537C428.696 18.5537 429.482 19.5654 429.482 21.3086V21.3223C429.482 23.0586 428.696 24.0771 427.302 24.0771ZM432.777 26.9482V25H438.54V26.9482H439.647V24.0156H438.472V17.6309H433.447L433.16 21.7393C433.092 22.7305 432.825 23.6602 432.285 24.0156H431.67V26.9482H432.777ZM437.282 24.0156H433.659V23.9062C434.008 23.4482 434.199 22.6621 434.268 21.7666L434.5 18.6152H437.282V24.0156ZM444.228 25.1299C446.326 25.1299 447.625 23.6807 447.625 21.3223V21.3086C447.625 18.9434 446.326 17.501 444.228 17.501C442.129 17.501 440.83 18.9434 440.83 21.3086V21.3223C440.83 23.6807 442.129 25.1299 444.228 25.1299ZM444.228 24.0771C442.833 24.0771 442.047 23.0586 442.047 21.3223V21.3086C442.047 19.5654 442.833 18.5537 444.228 18.5537C445.622 18.5537 446.408 19.5654 446.408 21.3086V21.3223C446.408 23.0586 445.622 24.0771 444.228 24.0771ZM449.601 25H452.738C454.324 25 455.261 24.166 455.261 22.8877V22.874C455.261 22.0195 454.666 21.3633 453.729 21.2334V21.124C454.42 20.9805 454.933 20.29 454.933 19.5586V19.5449C454.933 18.3896 454.119 17.6309 452.725 17.6309H449.601V25ZM450.79 20.748V18.6152H452.554C453.381 18.6152 453.75 19.0391 453.75 19.668V19.6816C453.75 20.3789 453.319 20.748 452.362 20.748H450.79ZM450.79 24.0156V21.7324H452.465C453.524 21.7324 454.051 22.0742 454.051 22.8535V22.8672C454.051 23.6055 453.593 24.0156 452.69 24.0156H450.79ZM457.271 25H459.902C461.591 25 462.671 24.0293 462.671 22.5049V22.4912C462.671 20.9668 461.591 19.9961 459.902 19.9961H458.46V17.6309H457.271V25ZM463.956 25H465.146V17.6309H463.956V25ZM459.902 20.9805C460.866 20.9805 461.481 21.5752 461.481 22.4912V22.5049C461.481 23.4141 460.873 24.0156 459.902 24.0156H458.46V20.9805H459.902ZM470.498 25.1299C472.234 25.1299 473.287 24.1455 473.54 23.1475L473.554 23.0928H472.364L472.337 23.1543C472.139 23.5986 471.523 24.0703 470.525 24.0703C469.213 24.0703 468.372 23.1816 468.338 21.6572H473.643V21.1924C473.643 18.9912 472.426 17.501 470.423 17.501C468.42 17.501 467.121 19.0596 467.121 21.3359V21.3428C467.121 23.6533 468.393 25.1299 470.498 25.1299ZM470.416 18.5605C471.503 18.5605 472.31 19.251 472.433 20.707H468.358C468.488 19.3057 469.322 18.5605 470.416 18.5605ZM482.064 25.1367C483.78 25.1367 484.963 24.2002 484.963 22.833V22.8193C484.963 21.999 484.45 21.4111 483.479 21.1992V21.0898C484.211 20.9189 484.696 20.2422 484.696 19.4971V19.4834C484.696 18.3076 483.753 17.4941 482.105 17.4941C480.602 17.4941 479.521 18.2461 479.351 19.4287L479.344 19.4766H480.506L480.513 19.4424C480.629 18.8545 481.265 18.4785 482.105 18.4785C483.049 18.4785 483.534 18.9434 483.534 19.5723V19.5859C483.534 20.3516 483.008 20.7275 482.064 20.7275H480.916V21.7119H482.064C483.192 21.7119 483.794 22.0811 483.794 22.8809V22.8945C483.794 23.626 483.151 24.1523 482.064 24.1523C481.169 24.1523 480.513 23.7695 480.362 23.168L480.349 23.1133H479.139L479.146 23.168C479.296 24.3574 480.492 25.1367 482.064 25.1367ZM488.969 25.1299C489.96 25.1299 490.732 24.6992 491.197 23.9131H491.307V25H492.496V19.9551C492.496 18.4238 491.491 17.501 489.693 17.501C488.121 17.501 487 18.2803 486.809 19.4355L486.802 19.4766H487.991L487.998 19.4561C488.189 18.8818 488.771 18.5537 489.652 18.5537C490.753 18.5537 491.307 19.0459 491.307 19.9551V20.625L489.194 20.7549C487.479 20.8574 486.508 21.6162 486.508 22.9287V22.9424C486.508 24.2822 487.567 25.1299 488.969 25.1299ZM487.725 22.915V22.9014C487.725 22.1699 488.217 21.7734 489.338 21.7051L491.307 21.582V22.252C491.307 23.3047 490.425 24.0977 489.215 24.0977C488.36 24.0977 487.725 23.6602 487.725 22.915ZM495.989 25V19.7568H496.119L498.437 24.7949H499.353L501.677 19.7568H501.807V25H502.996V17.6309H501.615L498.977 23.3457H498.867L496.242 17.6309H494.8V25H495.989ZM506.906 21.6436L509.791 25H511.315L507.87 21.1035L511.186 17.6309H509.757L506.906 20.7139H506.53V17.6309H505.341V25H506.53V21.6436H506.906ZM512.956 25H514.146L517.789 19.5039H517.898V25H519.088V17.6309H517.898L514.255 23.127H514.146V17.6309H512.956V25Z" fill="#161C24"/>
<path d="M540.667 15.3333L531.333 24.6666M540.667 24.6666L531.333 15.3333L540.667 24.6666Z" stroke="#E44286" stroke-linecap="round" stroke-linejoin="round"/>
<rect x="1051.5" y="0.5" width="193" height="39" stroke="#C4CDD5"/>
<path d="M1077.36 26V14.7266H1068.52V26H1069.92V15.9922H1075.95V26H1077.36ZM1083.68 26.1484C1086.08 26.1484 1087.56 24.4922 1087.56 21.7969V21.7812C1087.56 19.0781 1086.08 17.4297 1083.68 17.4297C1081.28 17.4297 1079.8 19.0781 1079.8 21.7812V21.7969C1079.8 24.4922 1081.28 26.1484 1083.68 26.1484ZM1083.68 24.9453C1082.09 24.9453 1081.19 23.7812 1081.19 21.7969V21.7812C1081.19 19.7891 1082.09 18.6328 1083.68 18.6328C1085.27 18.6328 1086.17 19.7891 1086.17 21.7812V21.7969C1086.17 23.7812 1085.27 24.9453 1083.68 24.9453ZM1089.82 26H1091.18V18.7031H1095.27V26H1096.63V17.5781H1089.82V26ZM1100.03 28.9531C1101.52 28.9531 1102.22 28.4062 1102.91 26.5156L1106.2 17.5781H1104.77L1102.47 24.5078H1102.34L1100.03 17.5781H1098.58L1101.7 26.0078L1101.54 26.5078C1101.23 27.4766 1100.77 27.8281 1099.99 27.8281C1099.8 27.8281 1099.59 27.8203 1099.43 27.7891V28.9062C1099.62 28.9375 1099.85 28.9531 1100.03 28.9531ZM1109.81 22.7031L1110.12 18.7031H1113.05V26H1114.41V17.5781H1108.91L1108.55 22.5938C1108.46 23.8438 1108.15 24.8203 1107.38 24.8203C1107.17 24.8203 1106.96 24.7891 1106.89 24.7656V25.9922C1107 26.0312 1107.22 26.0781 1107.51 26.0781C1108.91 26.0781 1109.63 25.0234 1109.81 22.7031ZM1121.55 26H1122.91V17.5781H1119.98C1118.05 17.5781 1116.82 18.6328 1116.82 20.3594V20.375C1116.82 21.5234 1117.54 22.3984 1118.73 22.7344L1116.38 26H1117.98L1120.12 22.9844H1121.55V26ZM1119.98 21.8594C1118.88 21.8594 1118.21 21.2266 1118.21 20.3438V20.3281C1118.21 19.3125 1118.88 18.7031 1119.98 18.7031H1121.55V21.8594H1119.98ZM1125.59 28.8125H1126.95V24.6719H1127.08C1127.54 25.5703 1128.55 26.1484 1129.7 26.1484C1131.84 26.1484 1133.23 24.4375 1133.23 21.7969V21.7812C1133.23 19.1562 1131.84 17.4297 1129.7 17.4297C1128.53 17.4297 1127.59 17.9844 1127.08 18.9219H1126.95V17.5781H1125.59V28.8125ZM1129.39 24.9453C1127.86 24.9453 1126.92 23.7422 1126.92 21.7969V21.7812C1126.92 19.8359 1127.86 18.6328 1129.39 18.6328C1130.93 18.6328 1131.84 19.8203 1131.84 21.7812V21.7969C1131.84 23.7578 1130.93 24.9453 1129.39 24.9453ZM1141.04 26H1142.4V17.5781H1141.04V21.0625H1136.87V17.5781H1135.51V26H1136.87V22.1875H1141.04V26ZM1148.54 26.1484C1150.94 26.1484 1152.42 24.4922 1152.42 21.7969V21.7812C1152.42 19.0781 1150.94 17.4297 1148.54 17.4297C1146.14 17.4297 1144.66 19.0781 1144.66 21.7812V21.7969C1144.66 24.4922 1146.14 26.1484 1148.54 26.1484ZM1148.54 24.9453C1146.95 24.9453 1146.05 23.7812 1146.05 21.7969V21.7812C1146.05 19.7891 1146.95 18.6328 1148.54 18.6328C1150.13 18.6328 1151.03 19.7891 1151.03 21.7812V21.7969C1151.03 23.7812 1150.13 24.9453 1148.54 24.9453ZM1158.13 26.1484C1160.16 26.1484 1161.29 25.0625 1161.63 23.5391L1161.65 23.4531L1160.3 23.4609L1160.29 23.5078C1159.98 24.4453 1159.26 24.9453 1158.12 24.9453C1156.62 24.9453 1155.66 23.7031 1155.66 21.7656V21.75C1155.66 19.8516 1156.61 18.6328 1158.12 18.6328C1159.34 18.6328 1160.09 19.3047 1160.3 20.1328L1160.3 20.1562H1161.66L1161.65 20.1094C1161.4 18.6094 1160.17 17.4297 1158.12 17.4297C1155.77 17.4297 1154.27 19.1328 1154.27 21.75V21.7656C1154.27 24.4375 1155.77 26.1484 1158.13 26.1484ZM1169.5 17.5781H1162.69V18.7031H1165.41V26H1166.77V18.7031H1169.5V17.5781ZM1171.46 26H1172.82L1176.98 19.7188H1177.11V26H1178.47V17.5781H1177.11L1172.95 23.8594H1172.82V17.5781H1171.46V26Z" fill="#161C24"/>
<path d="M1226.33 17.3333L1221 22.6666L1215.67 17.3333" stroke="#161C24" stroke-width="1.5" stroke-linecap="round" stroke-linejoin="round"/>
</svg>
